G75*
G70*
%OFA0B0*%
%FSLAX24Y24*%
%IPPOS*%
%LPD*%
%AMOC8*
5,1,8,0,0,1.08239X$1,22.5*
%
%ADD10C,0.0040*%
%ADD11C,0.0080*%
%ADD12C,0.0020*%
%ADD13C,0.0050*%
%ADD14C,0.0010*%
%ADD15R,0.0079X0.0217*%
%ADD16R,0.0217X0.0079*%
%ADD17C,0.0080*%
D10*
X005473Y008897D02*
X005473Y009204D01*
X005473Y009051D02*
X005012Y009051D01*
X005012Y009358D02*
X005473Y009358D01*
X005473Y009588D01*
X005396Y009665D01*
X005242Y009665D01*
X005166Y009588D01*
X005166Y009358D01*
X005012Y009818D02*
X005319Y010125D01*
X005396Y010125D01*
X005473Y010048D01*
X005473Y009895D01*
X005396Y009818D01*
X005012Y009818D02*
X005012Y010125D01*
X004243Y010109D02*
X004243Y009802D01*
X004243Y009956D02*
X003782Y009956D01*
X003782Y010263D02*
X004243Y010263D01*
X004243Y010493D01*
X004166Y010570D01*
X004012Y010570D01*
X003936Y010493D01*
X003936Y010263D01*
X004089Y010723D02*
X004243Y010877D01*
X003782Y010877D01*
X003782Y011030D02*
X003782Y010723D01*
X005295Y011448D02*
X005602Y011448D01*
X005448Y011448D02*
X005448Y011908D01*
X005602Y011754D01*
X005755Y011831D02*
X005832Y011908D01*
X005985Y011908D01*
X006062Y011831D01*
X006062Y011524D01*
X005755Y011831D01*
X005755Y011524D01*
X005832Y011448D01*
X005985Y011448D01*
X006062Y011524D01*
X006215Y011448D02*
X006522Y011448D01*
X006369Y011448D02*
X006369Y011908D01*
X006522Y011754D01*
X006676Y011678D02*
X006983Y011678D01*
X007136Y011831D02*
X007136Y011908D01*
X007443Y011908D01*
X007597Y011831D02*
X007673Y011908D01*
X007827Y011908D01*
X007904Y011831D01*
X008057Y011831D02*
X008364Y011524D01*
X008287Y011448D01*
X008134Y011448D01*
X008057Y011524D01*
X008057Y011831D01*
X008134Y011908D01*
X008287Y011908D01*
X008364Y011831D01*
X008364Y011524D01*
X008517Y011524D02*
X008594Y011448D01*
X008748Y011448D01*
X008824Y011524D01*
X008824Y011678D02*
X008671Y011754D01*
X008594Y011754D01*
X008517Y011678D01*
X008517Y011524D01*
X008824Y011678D02*
X008824Y011908D01*
X008517Y011908D01*
X008978Y011831D02*
X009285Y011524D01*
X009208Y011448D01*
X009055Y011448D01*
X008978Y011524D01*
X008978Y011831D01*
X009055Y011908D01*
X009208Y011908D01*
X009285Y011831D01*
X009285Y011524D01*
X009438Y011448D02*
X009745Y011448D01*
X009592Y011448D02*
X009592Y011908D01*
X009745Y011754D01*
X009899Y011678D02*
X010206Y011678D01*
X010359Y011831D02*
X010436Y011908D01*
X010666Y011908D01*
X010666Y011448D01*
X010436Y011448D01*
X010359Y011524D01*
X010359Y011831D01*
X010512Y012158D02*
X010512Y012772D01*
X010589Y012695D02*
X010436Y012695D01*
X010359Y012619D01*
X010206Y012542D02*
X010052Y012695D01*
X010052Y012235D01*
X009899Y012235D02*
X010206Y012235D01*
X010359Y012312D02*
X010359Y012388D01*
X010436Y012465D01*
X010589Y012465D01*
X010666Y012542D01*
X010666Y012619D01*
X010589Y012695D01*
X010819Y012695D02*
X010819Y012312D01*
X010896Y012235D01*
X011050Y012235D01*
X011126Y012312D01*
X011126Y012695D01*
X010666Y012312D02*
X010589Y012235D01*
X010436Y012235D01*
X010359Y012312D01*
X009745Y012312D02*
X009745Y012388D01*
X009668Y012465D01*
X009515Y012465D01*
X009438Y012388D01*
X009438Y012312D01*
X009515Y012235D01*
X009668Y012235D01*
X009745Y012312D01*
X009668Y012465D02*
X009745Y012542D01*
X009745Y012619D01*
X009668Y012695D01*
X009515Y012695D01*
X009438Y012619D01*
X009438Y012542D01*
X009515Y012465D01*
X010819Y011831D02*
X010896Y011908D01*
X011050Y011908D01*
X011126Y011831D01*
X011126Y011754D01*
X011050Y011678D01*
X010896Y011678D01*
X010819Y011601D01*
X010819Y011524D01*
X010896Y011448D01*
X011050Y011448D01*
X011126Y011524D01*
X007904Y011448D02*
X007597Y011754D01*
X007597Y011831D01*
X007443Y011524D02*
X007443Y011448D01*
X007443Y011524D02*
X007136Y011831D01*
X007597Y011448D02*
X007904Y011448D01*
X006703Y010953D02*
X006703Y010800D01*
X006626Y010723D01*
X006626Y010570D02*
X006472Y010570D01*
X006396Y010493D01*
X006396Y010263D01*
X006242Y010263D02*
X006703Y010263D01*
X006703Y010493D01*
X006626Y010570D01*
X006472Y010877D02*
X006472Y010953D01*
X006396Y011030D01*
X006319Y011030D01*
X006242Y010953D01*
X006242Y010800D01*
X006319Y010723D01*
X006472Y010953D02*
X006549Y011030D01*
X006626Y011030D01*
X006703Y010953D01*
X006703Y010109D02*
X006703Y009802D01*
X006703Y009956D02*
X006242Y009956D01*
X004851Y013132D02*
X005005Y013286D01*
X004544Y013286D01*
X004544Y013439D02*
X004544Y013132D01*
X004621Y013593D02*
X004928Y013900D01*
X004621Y013900D01*
X004544Y013823D01*
X004544Y013669D01*
X004621Y013593D01*
X004928Y013593D01*
X005005Y013669D01*
X005005Y013823D01*
X004928Y013900D01*
X004851Y014053D02*
X004621Y014053D01*
X004544Y014130D01*
X004544Y014360D01*
X004851Y014360D01*
X004775Y014513D02*
X004775Y014667D01*
X005005Y014513D02*
X005005Y014820D01*
X005005Y014513D02*
X004544Y014513D01*
X004217Y014513D02*
X004217Y014820D01*
X004064Y014744D02*
X004064Y014667D01*
X003987Y014513D01*
X004217Y014513D01*
X004217Y014283D02*
X003987Y014053D01*
X003987Y014360D01*
X003834Y014513D02*
X003757Y014590D01*
X003757Y014744D01*
X003834Y014820D01*
X003987Y014820D01*
X004064Y014744D01*
X004217Y014283D02*
X003757Y014283D01*
X003834Y013900D02*
X003757Y013823D01*
X003757Y013669D01*
X003834Y013593D01*
X004141Y013593D01*
X004217Y013669D01*
X004217Y013823D01*
X004141Y013900D01*
X004544Y020212D02*
X004544Y020519D01*
X004544Y020366D02*
X005005Y020366D01*
X004851Y020212D01*
X004928Y020673D02*
X004621Y020673D01*
X004928Y020980D01*
X004621Y020980D01*
X004544Y020903D01*
X004544Y020749D01*
X004621Y020673D01*
X004928Y020673D02*
X005005Y020749D01*
X005005Y020903D01*
X004928Y020980D01*
X004851Y021133D02*
X004621Y021133D01*
X004544Y021210D01*
X004544Y021440D01*
X004851Y021440D01*
X004775Y021593D02*
X004775Y021747D01*
X004787Y021766D02*
X004940Y021766D01*
X005017Y021843D01*
X004710Y022150D01*
X004710Y021843D01*
X004787Y021766D01*
X005017Y021843D02*
X005017Y022150D01*
X004940Y022227D01*
X004787Y022227D01*
X004710Y022150D01*
X004557Y022073D02*
X004557Y021843D01*
X004480Y021766D01*
X004250Y021766D01*
X004250Y022073D01*
X004096Y021997D02*
X003943Y021997D01*
X004141Y021900D02*
X003834Y021593D01*
X003757Y021593D01*
X003757Y021363D02*
X004217Y021363D01*
X003987Y021133D01*
X003987Y021440D01*
X004217Y021593D02*
X004217Y021900D01*
X004141Y021900D01*
X004096Y021766D02*
X004096Y022227D01*
X003789Y022227D01*
X004326Y022554D02*
X004326Y023014D01*
X004557Y022784D01*
X004250Y022784D01*
X004710Y022784D02*
X004710Y022631D01*
X004787Y022554D01*
X004940Y022554D01*
X005017Y022631D01*
X005017Y022784D02*
X004864Y022861D01*
X004787Y022861D01*
X004710Y022784D01*
X004710Y023014D02*
X005017Y023014D01*
X005017Y022784D01*
X005170Y022631D02*
X005247Y022554D01*
X005401Y022554D01*
X005477Y022631D01*
X005477Y022937D01*
X005401Y023014D01*
X005247Y023014D01*
X005170Y022937D01*
X005324Y022227D02*
X005324Y021766D01*
X005477Y021766D02*
X005170Y021766D01*
X005005Y021900D02*
X005005Y021593D01*
X004544Y021593D01*
X004141Y020980D02*
X004217Y020903D01*
X004217Y020749D01*
X004141Y020673D01*
X003834Y020673D01*
X003757Y020749D01*
X003757Y020903D01*
X003834Y020980D01*
X005324Y022227D02*
X005477Y022073D01*
X007739Y022227D02*
X008046Y022227D01*
X008046Y021766D01*
X008200Y021766D02*
X008200Y022073D01*
X008046Y021997D02*
X007893Y021997D01*
X008200Y021766D02*
X008430Y021766D01*
X008507Y021843D01*
X008507Y022073D01*
X008660Y022150D02*
X008660Y021843D01*
X008737Y021766D01*
X008890Y021766D01*
X008967Y021843D01*
X008660Y022150D01*
X008737Y022227D01*
X008890Y022227D01*
X008967Y022150D01*
X008967Y021843D01*
X009120Y021766D02*
X009427Y021766D01*
X009274Y021766D02*
X009274Y022227D01*
X009427Y022073D01*
X009351Y022554D02*
X009197Y022554D01*
X009120Y022631D01*
X008967Y022631D02*
X008967Y022554D01*
X008967Y022631D02*
X008660Y022937D01*
X008660Y023014D01*
X008967Y023014D01*
X009120Y022937D02*
X009197Y023014D01*
X009351Y023014D01*
X009427Y022937D01*
X009427Y022631D01*
X009351Y022554D01*
X011744Y023089D02*
X012051Y023089D01*
X012051Y022629D01*
X012205Y022629D02*
X012205Y022936D01*
X012051Y022859D02*
X011898Y022859D01*
X011975Y023129D02*
X011821Y023129D01*
X011744Y023205D01*
X011744Y023512D01*
X011821Y023589D01*
X011975Y023589D01*
X012051Y023512D01*
X012051Y023436D01*
X011975Y023359D01*
X011744Y023359D01*
X011975Y023129D02*
X012051Y023205D01*
X012205Y023129D02*
X012512Y023129D01*
X012358Y023129D02*
X012358Y023589D01*
X012512Y023436D01*
X012665Y023512D02*
X012742Y023589D01*
X012895Y023589D01*
X012972Y023512D01*
X012972Y023205D01*
X012895Y023129D01*
X012742Y023129D01*
X012665Y023205D01*
X012819Y023089D02*
X012972Y022936D01*
X012819Y023089D02*
X012819Y022629D01*
X012972Y022629D02*
X012665Y022629D01*
X012512Y022705D02*
X012512Y022936D01*
X012512Y022705D02*
X012435Y022629D01*
X012205Y022629D01*
X014154Y023651D02*
X014615Y023651D01*
X014615Y023804D02*
X014615Y023497D01*
X014615Y023958D02*
X014615Y024188D01*
X014538Y024265D01*
X014385Y024265D01*
X014308Y024188D01*
X014308Y023958D01*
X014154Y023958D02*
X014615Y023958D01*
X014615Y024418D02*
X014385Y024418D01*
X014461Y024572D01*
X014461Y024648D01*
X014385Y024725D01*
X014231Y024725D01*
X014154Y024648D01*
X014154Y024495D01*
X014231Y024418D01*
X014615Y024418D02*
X014615Y024725D01*
X016854Y024648D02*
X016854Y024495D01*
X016930Y024418D01*
X017084Y024418D01*
X017084Y024648D01*
X017007Y024725D01*
X016930Y024725D01*
X016854Y024648D01*
X017084Y024418D02*
X017237Y024572D01*
X017314Y024725D01*
X017237Y024265D02*
X017084Y024265D01*
X017007Y024188D01*
X017007Y023958D01*
X016854Y023958D02*
X017314Y023958D01*
X017314Y024188D01*
X017237Y024265D01*
X017314Y023804D02*
X017314Y023497D01*
X017314Y023651D02*
X016854Y023651D01*
X011512Y029329D02*
X011205Y029329D01*
X011052Y029329D02*
X010822Y029329D01*
X010745Y029252D01*
X010745Y029099D01*
X010822Y029022D01*
X011052Y029022D01*
X011052Y028869D02*
X011052Y029329D01*
X011359Y029329D02*
X011359Y028869D01*
X010591Y028869D02*
X010284Y028869D01*
X010438Y028869D02*
X010438Y029329D01*
X010591Y029176D01*
X010131Y029252D02*
X010054Y029329D01*
X009901Y029329D01*
X009824Y029252D01*
X009824Y029176D01*
X009901Y029099D01*
X009824Y029022D01*
X009824Y028945D01*
X009901Y028869D01*
X010054Y028869D01*
X010131Y028945D01*
X009978Y029099D02*
X009901Y029099D01*
X010507Y030413D02*
X010430Y030490D01*
X010430Y030644D01*
X010507Y030720D01*
X010584Y030720D01*
X010737Y030644D01*
X010737Y030874D01*
X010430Y030874D01*
X010507Y030413D02*
X010661Y030413D01*
X010737Y030490D01*
X010891Y030413D02*
X011198Y030413D01*
X010891Y030720D01*
X010891Y030797D01*
X010968Y030874D01*
X011121Y030874D01*
X011198Y030797D01*
X011351Y030797D02*
X011428Y030874D01*
X011581Y030874D01*
X011658Y030797D01*
X011658Y030490D01*
X011581Y030413D01*
X011428Y030413D01*
X011351Y030490D01*
X011428Y031201D02*
X011581Y031201D01*
X011658Y031278D01*
X011351Y031584D01*
X011351Y031278D01*
X011428Y031201D01*
X011658Y031278D02*
X011658Y031584D01*
X011581Y031661D01*
X011428Y031661D01*
X011351Y031584D01*
X011198Y031508D02*
X011198Y031278D01*
X011121Y031201D01*
X010891Y031201D01*
X010891Y031508D01*
X010737Y031431D02*
X010584Y031431D01*
X010737Y031201D02*
X010737Y031661D01*
X010430Y031661D01*
X011812Y031201D02*
X012119Y031201D01*
X011965Y031201D02*
X011965Y031661D01*
X012119Y031508D01*
X005105Y027485D02*
X005105Y027178D01*
X004644Y027178D01*
X004644Y027025D02*
X004951Y027025D01*
X004875Y027178D02*
X004875Y027332D01*
X004644Y027025D02*
X004644Y026795D01*
X004721Y026718D01*
X004951Y026718D01*
X005028Y026565D02*
X004721Y026565D01*
X004644Y026488D01*
X004644Y026334D01*
X004721Y026258D01*
X005028Y026565D01*
X005105Y026488D01*
X005105Y026334D01*
X005028Y026258D01*
X004721Y026258D01*
X004644Y026104D02*
X004644Y025797D01*
X004644Y025951D02*
X005105Y025951D01*
X004951Y025797D01*
X004317Y026334D02*
X004241Y026258D01*
X003934Y026258D01*
X003857Y026334D01*
X003857Y026488D01*
X003934Y026565D01*
X004087Y026718D02*
X004087Y027025D01*
X004087Y027178D02*
X004087Y027409D01*
X004010Y027485D01*
X003934Y027485D01*
X003857Y027409D01*
X003857Y027255D01*
X003934Y027178D01*
X004087Y027178D01*
X004241Y027332D01*
X004317Y027485D01*
X004317Y026948D02*
X004087Y026718D01*
X004241Y026565D02*
X004317Y026488D01*
X004317Y026334D01*
X004317Y026948D02*
X003857Y026948D01*
X000780Y023812D02*
X000780Y023505D01*
X000320Y023505D01*
X000320Y023352D02*
X000550Y023352D01*
X000627Y023275D01*
X000627Y023045D01*
X000320Y023045D01*
X000397Y022891D02*
X000320Y022814D01*
X000320Y022661D01*
X000397Y022584D01*
X000704Y022891D01*
X000397Y022891D01*
X000704Y022891D02*
X000780Y022814D01*
X000780Y022661D01*
X000704Y022584D01*
X000397Y022584D01*
X000397Y022431D02*
X000320Y022354D01*
X000320Y022201D01*
X000397Y022124D01*
X000704Y022431D01*
X000397Y022431D01*
X000704Y022431D02*
X000780Y022354D01*
X000780Y022201D01*
X000704Y022124D01*
X000397Y022124D01*
X000320Y021970D02*
X000320Y021663D01*
X000320Y021817D02*
X000780Y021817D01*
X000627Y021663D01*
X001107Y021740D02*
X001107Y021894D01*
X001184Y021970D01*
X001107Y022124D02*
X001107Y022431D01*
X001107Y022277D02*
X001568Y022277D01*
X001414Y022124D01*
X001491Y021970D02*
X001568Y021894D01*
X001568Y021740D01*
X001491Y021663D01*
X001184Y021663D01*
X001107Y021740D01*
X001184Y022584D02*
X001107Y022661D01*
X001107Y022814D01*
X001184Y022891D01*
X001261Y022891D01*
X001338Y022814D01*
X001338Y022738D01*
X001338Y022814D02*
X001414Y022891D01*
X001491Y022891D01*
X001568Y022814D01*
X001568Y022661D01*
X001491Y022584D01*
X000550Y023505D02*
X000550Y023658D01*
X010038Y007175D02*
X009961Y007098D01*
X009961Y006945D01*
X010038Y006868D01*
X010115Y006868D01*
X010192Y006945D01*
X010192Y007098D01*
X010115Y007175D01*
X010038Y007175D01*
X010192Y007098D02*
X010268Y007175D01*
X010345Y007175D01*
X010422Y007098D01*
X010422Y006945D01*
X010345Y006868D01*
X010268Y006868D01*
X010192Y006945D01*
X010192Y006715D02*
X010115Y006638D01*
X010115Y006408D01*
X009961Y006408D02*
X010422Y006408D01*
X010422Y006638D01*
X010345Y006715D01*
X010192Y006715D01*
X010422Y006254D02*
X010422Y005947D01*
X010422Y006101D02*
X009961Y006101D01*
X011191Y006101D02*
X011652Y006101D01*
X011652Y006254D02*
X011652Y005947D01*
X011652Y006408D02*
X011191Y006408D01*
X011345Y006408D02*
X011345Y006638D01*
X011422Y006715D01*
X011575Y006715D01*
X011652Y006638D01*
X011652Y006408D01*
X011652Y006868D02*
X011652Y007175D01*
X011575Y007175D01*
X011268Y006868D01*
X011191Y006868D01*
D11*
X011690Y009853D02*
X012209Y009853D01*
X011690Y009853D02*
X011690Y010325D01*
X011690Y010916D02*
X011690Y012057D01*
X012131Y012609D02*
X015674Y012609D01*
X016115Y012057D02*
X016115Y010916D01*
X016115Y010325D02*
X016115Y009853D01*
X015733Y009853D01*
X007811Y008347D02*
X007811Y008110D01*
X007555Y008740D02*
X005429Y008740D01*
X005173Y008347D02*
X005173Y008110D01*
X005902Y007717D02*
X006492Y007717D01*
D12*
X006504Y007739D02*
X006467Y007775D01*
X006430Y007739D01*
X006393Y007775D01*
X006393Y007885D01*
X006319Y007849D02*
X006283Y007885D01*
X006209Y007885D01*
X006172Y007849D01*
X006172Y007812D01*
X006319Y007812D01*
X006319Y007775D02*
X006319Y007849D01*
X006319Y007775D02*
X006283Y007739D01*
X006209Y007739D01*
X006098Y007739D02*
X006098Y007885D01*
X006098Y007812D02*
X006025Y007885D01*
X005988Y007885D01*
X006504Y007739D02*
X006540Y007775D01*
X006540Y007885D01*
X006614Y007849D02*
X006651Y007885D01*
X006725Y007885D01*
X006761Y007849D01*
X006761Y007775D01*
X006725Y007739D01*
X006651Y007739D01*
X006614Y007775D01*
X006614Y007849D01*
X006835Y007849D02*
X006872Y007812D01*
X006982Y007812D01*
X006982Y007739D02*
X006982Y007959D01*
X006872Y007959D01*
X006835Y007922D01*
X006835Y007849D01*
X006872Y008489D02*
X006946Y008489D01*
X006982Y008525D01*
X006946Y008599D02*
X006872Y008599D01*
X006835Y008562D01*
X006835Y008525D01*
X006872Y008489D01*
X006761Y008489D02*
X006614Y008489D01*
X006688Y008489D02*
X006688Y008709D01*
X006761Y008635D01*
X006835Y008672D02*
X006872Y008709D01*
X006946Y008709D01*
X006982Y008672D01*
X006982Y008635D01*
X006946Y008599D01*
D13*
X003976Y009443D02*
X003189Y009443D01*
X011485Y006854D02*
X013060Y006854D01*
X013232Y023479D02*
X015595Y023479D01*
X015831Y023715D01*
X015831Y024502D01*
X015595Y024739D01*
X013232Y024739D01*
X013232Y023479D01*
D14*
X014421Y024914D02*
X014471Y024914D01*
X014496Y024939D01*
X014396Y025039D01*
X014396Y024939D01*
X014421Y024914D01*
X014496Y024939D02*
X014496Y025039D01*
X014471Y025064D01*
X014421Y025064D01*
X014396Y025039D01*
X014595Y025004D02*
X014595Y024954D01*
X014620Y024929D01*
X014670Y024929D01*
X014695Y024954D01*
X014695Y025004D02*
X014645Y025029D01*
X014620Y025029D01*
X014595Y025004D01*
X014595Y025079D02*
X014695Y025079D01*
X014695Y025004D01*
X014742Y025004D02*
X014767Y024979D01*
X014842Y024979D01*
X014792Y024979D02*
X014742Y024929D01*
X014742Y025004D02*
X014742Y025054D01*
X014767Y025079D01*
X014842Y025079D01*
X014842Y024929D01*
X014595Y025654D02*
X014620Y025679D01*
X014520Y025779D01*
X014520Y025679D01*
X014545Y025654D01*
X014595Y025654D01*
X014620Y025679D02*
X014620Y025779D01*
X014595Y025804D01*
X014545Y025804D01*
X014520Y025779D01*
X014421Y025789D02*
X014346Y025789D01*
X014321Y025764D01*
X014321Y025714D01*
X014346Y025689D01*
X014421Y025689D01*
X014371Y025689D02*
X014321Y025639D01*
X014273Y025664D02*
X014273Y025689D01*
X014248Y025714D01*
X014198Y025714D01*
X014173Y025689D01*
X014173Y025664D01*
X014198Y025639D01*
X014248Y025639D01*
X014273Y025664D01*
X014248Y025714D02*
X014273Y025739D01*
X014273Y025764D01*
X014248Y025789D01*
X014198Y025789D01*
X014173Y025764D01*
X014173Y025739D01*
X014198Y025714D01*
X014421Y025639D02*
X014421Y025789D01*
X010901Y014408D02*
X010919Y014320D01*
X010830Y014338D01*
X010884Y014284D02*
X010990Y014391D01*
X011005Y014340D02*
X011005Y014198D01*
X010970Y014198D01*
X010935Y014233D01*
X010935Y014269D01*
X011005Y014340D01*
X011041Y014340D01*
X011076Y014304D01*
X011076Y014269D01*
X011005Y014198D01*
X011021Y014147D02*
X011092Y014076D01*
X011057Y014111D02*
X011163Y014218D01*
X011163Y014147D01*
X010643Y014168D02*
X010537Y014061D01*
X010572Y014026D02*
X010501Y014097D01*
X010485Y014148D02*
X010485Y014290D01*
X010415Y014219D01*
X010415Y014183D01*
X010450Y014148D01*
X010485Y014148D01*
X010556Y014219D01*
X010556Y014254D01*
X010521Y014290D01*
X010485Y014290D01*
X010470Y014341D02*
X010364Y014234D01*
X010399Y014270D02*
X010381Y014358D01*
X010399Y014270D02*
X010310Y014288D01*
X010643Y014168D02*
X010643Y014097D01*
X010512Y013843D02*
X010406Y013737D01*
X010371Y013772D02*
X010441Y013701D01*
X010475Y013668D02*
X010545Y013668D01*
X010528Y013686D02*
X010581Y013633D01*
X010545Y013597D02*
X010652Y013703D01*
X010599Y013756D01*
X010563Y013756D01*
X010528Y013721D01*
X010528Y013686D01*
X010512Y013772D02*
X010512Y013843D01*
X010132Y013653D02*
X010079Y013706D01*
X010043Y013706D01*
X010008Y013671D01*
X010008Y013636D01*
X010061Y013583D01*
X010025Y013618D02*
X009955Y013618D01*
X009921Y013651D02*
X009921Y013793D01*
X009939Y013811D01*
X009974Y013811D01*
X010010Y013775D01*
X010010Y013740D01*
X009921Y013651D02*
X009851Y013722D01*
X010025Y013547D02*
X010132Y013653D01*
X004887Y012276D02*
X004862Y012301D01*
X004762Y012201D01*
X004737Y012226D01*
X004737Y012276D01*
X004762Y012301D01*
X004862Y012301D01*
X004887Y012276D02*
X004887Y012226D01*
X004862Y012201D01*
X004762Y012201D01*
X004412Y013071D02*
X004437Y013096D01*
X004437Y013146D01*
X004412Y013171D01*
X004312Y013071D01*
X004287Y013096D01*
X004287Y013146D01*
X004312Y013171D01*
X004412Y013171D01*
X004412Y013071D02*
X004312Y013071D01*
X003712Y013071D02*
X003637Y012996D01*
X003637Y013096D01*
X003562Y013071D02*
X003712Y013071D01*
X003687Y012949D02*
X003637Y012949D01*
X003612Y012924D01*
X003612Y012849D01*
X003562Y012849D02*
X003712Y012849D01*
X003712Y012924D01*
X003687Y012949D01*
X003612Y012899D02*
X003562Y012949D01*
X003862Y012301D02*
X003837Y012276D01*
X003837Y012226D01*
X003862Y012201D01*
X003962Y012301D01*
X003862Y012301D01*
X003862Y012201D02*
X003962Y012201D01*
X003987Y012226D01*
X003987Y012276D01*
X003962Y012301D01*
X004037Y012226D02*
X004062Y012226D01*
X004087Y012201D01*
X004087Y012126D01*
X004037Y012126D01*
X004012Y012151D01*
X004012Y012201D01*
X004037Y012226D01*
X004137Y012176D02*
X004087Y012126D01*
X004087Y012079D02*
X004062Y012054D01*
X004062Y011979D01*
X004012Y011979D02*
X004162Y011979D01*
X004162Y012054D01*
X004137Y012079D01*
X004087Y012079D01*
X004062Y012029D02*
X004012Y012079D01*
X004137Y012176D02*
X004162Y012226D01*
X003262Y012201D02*
X003262Y012151D01*
X003237Y012126D01*
X003237Y012079D02*
X003187Y012079D01*
X003162Y012054D01*
X003162Y011979D01*
X003112Y011979D02*
X003262Y011979D01*
X003262Y012054D01*
X003237Y012079D01*
X003162Y012029D02*
X003112Y012079D01*
X003137Y012126D02*
X003112Y012151D01*
X003112Y012201D01*
X003137Y012226D01*
X003162Y012226D01*
X003187Y012201D01*
X003187Y012176D01*
X003187Y012201D02*
X003212Y012226D01*
X003237Y012226D01*
X003262Y012201D01*
D15*
G36*
X010324Y013706D02*
X010269Y013761D01*
X010420Y013912D01*
X010475Y013857D01*
X010324Y013706D01*
G37*
G36*
X010844Y013756D02*
X010789Y013811D01*
X010940Y013962D01*
X010995Y013907D01*
X010844Y013756D01*
G37*
X014076Y025359D03*
X014902Y025359D03*
D16*
X003992Y012789D03*
X003542Y011919D03*
X004442Y011919D03*
D17*
X003189Y007337D02*
X002795Y007337D01*
X002795Y008695D01*
X003976Y007337D02*
X004370Y007337D01*
X004370Y008695D01*
X011091Y008961D02*
X011091Y007602D01*
X011091Y008961D02*
X011485Y008961D01*
X013060Y008961D02*
X013453Y008961D01*
X013453Y007602D01*
M02*
