G75*
G70*
%OFA0B0*%
%FSLAX24Y24*%
%IPPOS*%
%LPD*%
%AMOC8*
5,1,8,0,0,1.08239X$1,22.5*
%
%ADD10R,0.0089X0.0236*%
%ADD11R,0.0197X0.0197*%
%ADD12R,0.0136X0.0177*%
%ADD13R,0.0177X0.0136*%
%ADD14R,0.0217X0.0413*%
%ADD15R,0.0197X0.0197*%
%ADD16R,0.0118X0.0157*%
%ADD17R,0.0217X0.0236*%
%ADD18R,0.0341X0.0118*%
%ADD19R,0.0364X0.0118*%
%ADD20R,0.0118X0.0315*%
%ADD21R,0.0106X0.0295*%
%ADD22R,0.0236X0.0217*%
%ADD23R,0.0394X0.0709*%
%ADD24R,0.0472X0.0551*%
%ADD25R,0.0197X0.0276*%
%ADD26R,0.0335X0.0157*%
%ADD27R,0.0118X0.0170*%
%ADD28R,0.0118X0.0177*%
%ADD29R,0.0170X0.0118*%
%ADD30R,0.0177X0.0118*%
%ADD31R,0.0236X0.0500*%
%ADD32R,0.0217X0.0394*%
%ADD33R,0.0394X0.0118*%
%ADD34R,0.0551X0.1024*%
%ADD35R,0.0110X0.0197*%
%ADD36R,0.0630X0.0354*%
%ADD37R,0.0220X0.0240*%
%ADD38R,0.0710X0.1770*%
%ADD39R,0.0570X0.0440*%
%ADD40R,0.0197X0.0110*%
%ADD41R,0.0354X0.0630*%
%ADD42R,0.0240X0.0220*%
%ADD43R,0.1770X0.0710*%
%ADD44R,0.0440X0.0570*%
D10*
X019232Y027440D03*
X019389Y027440D03*
X019547Y027440D03*
X019704Y027440D03*
X019862Y027440D03*
X019862Y028148D03*
X019704Y028148D03*
X019547Y028148D03*
X019389Y028148D03*
X019232Y028148D03*
D11*
X019387Y028947D03*
X019387Y029341D03*
X019824Y029341D03*
X019824Y028947D03*
X020253Y028949D03*
X020253Y029343D03*
X018944Y029341D03*
X018944Y028947D03*
X020077Y026814D03*
X020471Y026814D03*
X020594Y024871D03*
X020594Y024477D03*
X019521Y021914D03*
X019127Y021914D03*
X018204Y021581D03*
X018204Y021187D03*
X016051Y022014D03*
X015657Y022014D03*
X015657Y023064D03*
X016051Y023064D03*
X015331Y025174D03*
X014937Y025174D03*
X014917Y025644D03*
X015311Y025644D03*
X013751Y027324D03*
X013357Y027324D03*
X009981Y028464D03*
X009587Y028464D03*
X008344Y027496D03*
X008344Y027102D03*
X007784Y027102D03*
X007784Y027496D03*
X007594Y021911D03*
X007594Y021517D03*
X007914Y019161D03*
X007914Y018767D03*
X007594Y018371D03*
X007594Y017977D03*
X008014Y017241D03*
X008014Y016847D03*
X007594Y014831D03*
X007594Y014437D03*
X007805Y011468D03*
X007805Y011075D03*
X009627Y008634D03*
X010021Y008634D03*
X010587Y008634D03*
X010981Y008634D03*
X011774Y008031D03*
X011774Y007637D03*
X012754Y007607D03*
X012754Y008001D03*
X013304Y008001D03*
X013304Y007607D03*
X012861Y008991D03*
X012467Y008991D03*
X017334Y013427D03*
X017334Y013821D03*
X020784Y017387D03*
X020784Y017781D03*
X020784Y018467D03*
X020784Y018861D03*
X019631Y008881D03*
X019631Y008487D03*
X019637Y006764D03*
X019243Y006764D03*
X012101Y021924D03*
X011707Y021924D03*
D12*
X011707Y021276D03*
X011904Y021276D03*
X012101Y021276D03*
X012101Y020312D03*
X011904Y020312D03*
X011707Y020312D03*
X009216Y021232D03*
X009019Y021232D03*
X008822Y021232D03*
X008822Y022196D03*
X009019Y022196D03*
X009216Y022196D03*
X009218Y018656D03*
X009021Y018656D03*
X008824Y018656D03*
X008627Y018656D03*
X008430Y018656D03*
X008430Y017692D03*
X008627Y017692D03*
X008824Y017692D03*
X009021Y017692D03*
X009218Y017692D03*
X009218Y015116D03*
X009021Y015116D03*
X008824Y015116D03*
X008824Y014152D03*
X009021Y014152D03*
X009218Y014152D03*
X015657Y020312D03*
X015854Y020312D03*
X016051Y020312D03*
X016051Y021276D03*
X015854Y021276D03*
X015657Y021276D03*
X009781Y026847D03*
X009584Y026847D03*
X009387Y026847D03*
X009387Y027811D03*
X009584Y027811D03*
X009781Y027811D03*
D13*
X010066Y027723D03*
X010066Y027526D03*
X010066Y027329D03*
X010066Y027132D03*
X010066Y026935D03*
X009102Y026935D03*
X009102Y027132D03*
X009102Y027329D03*
X009102Y027526D03*
X009102Y027723D03*
X009501Y022108D03*
X009501Y021911D03*
X009501Y021714D03*
X009501Y021517D03*
X009501Y021320D03*
X008536Y021320D03*
X008536Y021517D03*
X008536Y021714D03*
X008536Y021911D03*
X008536Y022108D03*
X008342Y018371D03*
X008342Y018174D03*
X008342Y017977D03*
X009306Y017977D03*
X009306Y018174D03*
X009306Y018371D03*
X011422Y020400D03*
X011422Y020597D03*
X011422Y020794D03*
X011422Y020991D03*
X011422Y021188D03*
X012386Y021188D03*
X012386Y020991D03*
X012386Y020794D03*
X012386Y020597D03*
X012386Y020400D03*
X015372Y020400D03*
X015372Y020597D03*
X015372Y020794D03*
X015372Y020991D03*
X015372Y021188D03*
X016336Y021188D03*
X016336Y020991D03*
X016336Y020794D03*
X016336Y020597D03*
X016336Y020400D03*
X009503Y015028D03*
X009503Y014831D03*
X009503Y014634D03*
X009503Y014437D03*
X009503Y014240D03*
X008538Y014240D03*
X008538Y014437D03*
X008538Y014634D03*
X008538Y014831D03*
X008538Y015028D03*
D14*
X018780Y017165D03*
X019273Y017165D03*
X019765Y017165D03*
X020257Y017165D03*
X020257Y018012D03*
X019765Y018012D03*
X019273Y018012D03*
X018780Y018012D03*
D15*
G36*
X019899Y018636D02*
X019761Y018498D01*
X019623Y018636D01*
X019761Y018774D01*
X019899Y018636D01*
G37*
G36*
X020178Y018914D02*
X020040Y018776D01*
X019902Y018914D01*
X020040Y019052D01*
X020178Y018914D01*
G37*
G36*
X019041Y012335D02*
X018903Y012473D01*
X019041Y012611D01*
X019179Y012473D01*
X019041Y012335D01*
G37*
G36*
X019319Y012056D02*
X019181Y012194D01*
X019319Y012332D01*
X019457Y012194D01*
X019319Y012056D01*
G37*
G36*
X018971Y011698D02*
X018833Y011836D01*
X018971Y011974D01*
X019109Y011836D01*
X018971Y011698D01*
G37*
G36*
X018693Y011977D02*
X018555Y012115D01*
X018693Y012253D01*
X018831Y012115D01*
X018693Y011977D01*
G37*
G36*
X017643Y008684D02*
X017505Y008546D01*
X017367Y008684D01*
X017505Y008822D01*
X017643Y008684D01*
G37*
G36*
X018018Y008299D02*
X017880Y008161D01*
X017742Y008299D01*
X017880Y008437D01*
X018018Y008299D01*
G37*
G36*
X018329Y007988D02*
X018191Y007850D01*
X018053Y007988D01*
X018191Y008126D01*
X018329Y007988D01*
G37*
G36*
X018051Y007710D02*
X017913Y007572D01*
X017775Y007710D01*
X017913Y007848D01*
X018051Y007710D01*
G37*
G36*
X017740Y008021D02*
X017602Y007883D01*
X017464Y008021D01*
X017602Y008159D01*
X017740Y008021D01*
G37*
G36*
X017365Y008406D02*
X017227Y008268D01*
X017089Y008406D01*
X017227Y008544D01*
X017365Y008406D01*
G37*
G36*
X013981Y013026D02*
X013843Y013164D01*
X013981Y013302D01*
X014119Y013164D01*
X013981Y013026D01*
G37*
G36*
X013670Y012714D02*
X013532Y012852D01*
X013670Y012990D01*
X013808Y012852D01*
X013670Y012714D01*
G37*
G36*
X013391Y012993D02*
X013253Y013131D01*
X013391Y013269D01*
X013529Y013131D01*
X013391Y012993D01*
G37*
G36*
X013702Y013304D02*
X013564Y013442D01*
X013702Y013580D01*
X013840Y013442D01*
X013702Y013304D01*
G37*
G36*
X014021Y013622D02*
X013883Y013760D01*
X014021Y013898D01*
X014159Y013760D01*
X014021Y013622D01*
G37*
G36*
X014299Y013344D02*
X014161Y013482D01*
X014299Y013620D01*
X014437Y013482D01*
X014299Y013344D01*
G37*
D16*
X019184Y008008D03*
X019440Y008008D03*
X019696Y008008D03*
X019696Y007220D03*
X019184Y007220D03*
D17*
X019179Y008517D03*
X019179Y008851D03*
X015834Y006441D03*
X015834Y006107D03*
X015364Y006107D03*
X015364Y006441D03*
X014894Y006441D03*
X014894Y006107D03*
X014404Y006107D03*
X014404Y006441D03*
X013854Y005256D03*
X013854Y004922D03*
X012309Y007627D03*
X012309Y007961D03*
D18*
X018835Y020400D03*
X018835Y021188D03*
X019813Y021188D03*
X019813Y020400D03*
D19*
X019801Y020597D03*
X019801Y020794D03*
X019801Y020991D03*
X018847Y020991D03*
X018847Y020794D03*
X018847Y020597D03*
D20*
X019127Y020292D03*
X019324Y020292D03*
X019521Y020292D03*
X019521Y021296D03*
X019324Y021296D03*
X019127Y021296D03*
D21*
G36*
X016322Y013521D02*
X016247Y013596D01*
X016454Y013803D01*
X016529Y013728D01*
X016322Y013521D01*
G37*
G36*
X016461Y013382D02*
X016386Y013457D01*
X016593Y013664D01*
X016668Y013589D01*
X016461Y013382D01*
G37*
G36*
X016601Y013243D02*
X016526Y013318D01*
X016733Y013525D01*
X016808Y013450D01*
X016601Y013243D01*
G37*
G36*
X016740Y013103D02*
X016665Y013178D01*
X016872Y013385D01*
X016947Y013310D01*
X016740Y013103D01*
G37*
G36*
X016879Y012964D02*
X016804Y013039D01*
X017011Y013246D01*
X017086Y013171D01*
X016879Y012964D01*
G37*
G36*
X017018Y012825D02*
X016943Y012900D01*
X017150Y013107D01*
X017225Y013032D01*
X017018Y012825D01*
G37*
G36*
X017157Y012686D02*
X017082Y012761D01*
X017289Y012968D01*
X017364Y012893D01*
X017157Y012686D01*
G37*
G36*
X017297Y012547D02*
X017222Y012622D01*
X017429Y012829D01*
X017504Y012754D01*
X017297Y012547D01*
G37*
G36*
X017436Y012407D02*
X017361Y012482D01*
X017568Y012689D01*
X017643Y012614D01*
X017436Y012407D01*
G37*
G36*
X017575Y012268D02*
X017500Y012343D01*
X017707Y012550D01*
X017782Y012475D01*
X017575Y012268D01*
G37*
G36*
X017714Y012129D02*
X017639Y012204D01*
X017846Y012411D01*
X017921Y012336D01*
X017714Y012129D01*
G37*
G36*
X017853Y011990D02*
X017778Y012065D01*
X017985Y012272D01*
X018060Y012197D01*
X017853Y011990D01*
G37*
G36*
X017993Y011851D02*
X017918Y011926D01*
X018125Y012133D01*
X018200Y012058D01*
X017993Y011851D01*
G37*
G36*
X018132Y011711D02*
X018057Y011786D01*
X018264Y011993D01*
X018339Y011918D01*
X018132Y011711D01*
G37*
G36*
X018271Y011572D02*
X018196Y011647D01*
X018403Y011854D01*
X018478Y011779D01*
X018271Y011572D01*
G37*
G36*
X018410Y011433D02*
X018335Y011508D01*
X018542Y011715D01*
X018617Y011640D01*
X018410Y011433D01*
G37*
G36*
X018617Y010408D02*
X018542Y010333D01*
X018335Y010540D01*
X018410Y010615D01*
X018617Y010408D01*
G37*
G36*
X018196Y010401D02*
X018271Y010476D01*
X018478Y010269D01*
X018403Y010194D01*
X018196Y010401D01*
G37*
G36*
X018057Y010262D02*
X018132Y010337D01*
X018339Y010130D01*
X018264Y010055D01*
X018057Y010262D01*
G37*
G36*
X017918Y010123D02*
X017993Y010198D01*
X018200Y009991D01*
X018125Y009916D01*
X017918Y010123D01*
G37*
G36*
X017778Y009984D02*
X017853Y010059D01*
X018060Y009852D01*
X017985Y009777D01*
X017778Y009984D01*
G37*
G36*
X017639Y009844D02*
X017714Y009919D01*
X017921Y009712D01*
X017846Y009637D01*
X017639Y009844D01*
G37*
G36*
X017500Y009705D02*
X017575Y009780D01*
X017782Y009573D01*
X017707Y009498D01*
X017500Y009705D01*
G37*
G36*
X017361Y009566D02*
X017436Y009641D01*
X017643Y009434D01*
X017568Y009359D01*
X017361Y009566D01*
G37*
G36*
X017222Y009427D02*
X017297Y009502D01*
X017504Y009295D01*
X017429Y009220D01*
X017222Y009427D01*
G37*
G36*
X017082Y009288D02*
X017157Y009363D01*
X017364Y009156D01*
X017289Y009081D01*
X017082Y009288D01*
G37*
G36*
X016943Y009148D02*
X017018Y009223D01*
X017225Y009016D01*
X017150Y008941D01*
X016943Y009148D01*
G37*
G36*
X016804Y009009D02*
X016879Y009084D01*
X017086Y008877D01*
X017011Y008802D01*
X016804Y009009D01*
G37*
G36*
X016665Y008870D02*
X016740Y008945D01*
X016947Y008738D01*
X016872Y008663D01*
X016665Y008870D01*
G37*
G36*
X016526Y008731D02*
X016601Y008806D01*
X016808Y008599D01*
X016733Y008524D01*
X016526Y008731D01*
G37*
G36*
X016386Y008592D02*
X016461Y008667D01*
X016668Y008460D01*
X016593Y008385D01*
X016386Y008592D01*
G37*
G36*
X016247Y008453D02*
X016322Y008528D01*
X016529Y008321D01*
X016454Y008246D01*
X016247Y008453D01*
G37*
G36*
X015355Y008528D02*
X015430Y008453D01*
X015223Y008246D01*
X015148Y008321D01*
X015355Y008528D01*
G37*
G36*
X015215Y008667D02*
X015290Y008592D01*
X015083Y008385D01*
X015008Y008460D01*
X015215Y008667D01*
G37*
G36*
X015076Y008806D02*
X015151Y008731D01*
X014944Y008524D01*
X014869Y008599D01*
X015076Y008806D01*
G37*
G36*
X014937Y008945D02*
X015012Y008870D01*
X014805Y008663D01*
X014730Y008738D01*
X014937Y008945D01*
G37*
G36*
X014798Y009084D02*
X014873Y009009D01*
X014666Y008802D01*
X014591Y008877D01*
X014798Y009084D01*
G37*
G36*
X014659Y009223D02*
X014734Y009148D01*
X014527Y008941D01*
X014452Y009016D01*
X014659Y009223D01*
G37*
G36*
X014519Y009363D02*
X014594Y009288D01*
X014387Y009081D01*
X014312Y009156D01*
X014519Y009363D01*
G37*
G36*
X014380Y009502D02*
X014455Y009427D01*
X014248Y009220D01*
X014173Y009295D01*
X014380Y009502D01*
G37*
G36*
X014241Y009641D02*
X014316Y009566D01*
X014109Y009359D01*
X014034Y009434D01*
X014241Y009641D01*
G37*
G36*
X014102Y009780D02*
X014177Y009705D01*
X013970Y009498D01*
X013895Y009573D01*
X014102Y009780D01*
G37*
G36*
X013963Y009919D02*
X014038Y009844D01*
X013831Y009637D01*
X013756Y009712D01*
X013963Y009919D01*
G37*
G36*
X013823Y010059D02*
X013898Y009984D01*
X013691Y009777D01*
X013616Y009852D01*
X013823Y010059D01*
G37*
G36*
X013684Y010198D02*
X013759Y010123D01*
X013552Y009916D01*
X013477Y009991D01*
X013684Y010198D01*
G37*
G36*
X013545Y010337D02*
X013620Y010262D01*
X013413Y010055D01*
X013338Y010130D01*
X013545Y010337D01*
G37*
G36*
X013406Y010476D02*
X013481Y010401D01*
X013274Y010194D01*
X013199Y010269D01*
X013406Y010476D01*
G37*
G36*
X013267Y010615D02*
X013342Y010540D01*
X013135Y010333D01*
X013060Y010408D01*
X013267Y010615D01*
G37*
G36*
X013342Y011508D02*
X013267Y011433D01*
X013060Y011640D01*
X013135Y011715D01*
X013342Y011508D01*
G37*
G36*
X013481Y011647D02*
X013406Y011572D01*
X013199Y011779D01*
X013274Y011854D01*
X013481Y011647D01*
G37*
G36*
X013620Y011786D02*
X013545Y011711D01*
X013338Y011918D01*
X013413Y011993D01*
X013620Y011786D01*
G37*
G36*
X013759Y011926D02*
X013684Y011851D01*
X013477Y012058D01*
X013552Y012133D01*
X013759Y011926D01*
G37*
G36*
X013898Y012065D02*
X013823Y011990D01*
X013616Y012197D01*
X013691Y012272D01*
X013898Y012065D01*
G37*
G36*
X014038Y012204D02*
X013963Y012129D01*
X013756Y012336D01*
X013831Y012411D01*
X014038Y012204D01*
G37*
G36*
X014177Y012343D02*
X014102Y012268D01*
X013895Y012475D01*
X013970Y012550D01*
X014177Y012343D01*
G37*
G36*
X014316Y012482D02*
X014241Y012407D01*
X014034Y012614D01*
X014109Y012689D01*
X014316Y012482D01*
G37*
G36*
X014455Y012622D02*
X014380Y012547D01*
X014173Y012754D01*
X014248Y012829D01*
X014455Y012622D01*
G37*
G36*
X014594Y012761D02*
X014519Y012686D01*
X014312Y012893D01*
X014387Y012968D01*
X014594Y012761D01*
G37*
G36*
X014734Y012900D02*
X014659Y012825D01*
X014452Y013032D01*
X014527Y013107D01*
X014734Y012900D01*
G37*
G36*
X014873Y013039D02*
X014798Y012964D01*
X014591Y013171D01*
X014666Y013246D01*
X014873Y013039D01*
G37*
G36*
X015012Y013178D02*
X014937Y013103D01*
X014730Y013310D01*
X014805Y013385D01*
X015012Y013178D01*
G37*
G36*
X015151Y013318D02*
X015076Y013243D01*
X014869Y013450D01*
X014944Y013525D01*
X015151Y013318D01*
G37*
G36*
X015290Y013457D02*
X015215Y013382D01*
X015008Y013589D01*
X015083Y013664D01*
X015290Y013457D01*
G37*
G36*
X015430Y013596D02*
X015355Y013521D01*
X015148Y013728D01*
X015223Y013803D01*
X015430Y013596D01*
G37*
D22*
X012831Y009464D03*
X012497Y009464D03*
D23*
X010816Y007692D03*
X009832Y007692D03*
D24*
X011771Y007085D03*
X012401Y007085D03*
X012401Y006219D03*
X011771Y006219D03*
D25*
X013354Y005305D03*
X013354Y004872D03*
X014404Y007207D03*
X014404Y007640D03*
X014894Y007640D03*
X014894Y007207D03*
X015364Y007207D03*
X015364Y007640D03*
X015834Y007640D03*
X015834Y007207D03*
D26*
X012075Y010839D03*
X012075Y011095D03*
X012075Y011351D03*
X012075Y011607D03*
X012075Y011863D03*
X012075Y012118D03*
X012075Y012374D03*
X012075Y012630D03*
X012075Y012886D03*
X012075Y013142D03*
X009772Y013142D03*
X009772Y012886D03*
X009772Y012630D03*
X009772Y012374D03*
X009772Y012118D03*
X009772Y011863D03*
X009772Y011607D03*
X009772Y011351D03*
X009772Y011095D03*
X009772Y010839D03*
D27*
X012932Y025061D03*
X013916Y025061D03*
X013916Y026419D03*
X012932Y026419D03*
D28*
X013129Y026419D03*
X013325Y026419D03*
X013522Y026419D03*
X013719Y026419D03*
X013719Y025061D03*
X013522Y025061D03*
X013325Y025061D03*
X013129Y025061D03*
D29*
X012745Y025248D03*
X012745Y026232D03*
X014103Y026232D03*
X014103Y025248D03*
D30*
X014103Y025445D03*
X014103Y025642D03*
X014103Y025838D03*
X014103Y026035D03*
X012745Y026035D03*
X012745Y025838D03*
X012745Y025642D03*
X012745Y025445D03*
D31*
X012674Y017317D03*
X013174Y017317D03*
X013674Y017317D03*
X014174Y017317D03*
X014674Y017317D03*
X014674Y015211D03*
X014174Y015211D03*
X013674Y015211D03*
X013174Y015211D03*
X012674Y015211D03*
X012174Y015211D03*
X011674Y015211D03*
X011174Y015211D03*
X011174Y017317D03*
X011674Y017317D03*
X012174Y017317D03*
D32*
X009198Y011075D03*
X008824Y011075D03*
X008450Y011075D03*
X008450Y010012D03*
X008824Y010012D03*
X009198Y010012D03*
D33*
X018773Y023890D03*
X018773Y024087D03*
X018773Y024284D03*
X018773Y024481D03*
X018773Y024678D03*
X019875Y024678D03*
X019875Y024481D03*
X019875Y024284D03*
X019875Y024087D03*
X019875Y023890D03*
D34*
X019324Y024284D03*
D35*
X008149Y005698D03*
X007952Y005698D03*
X007755Y005698D03*
X007559Y005698D03*
X007559Y004950D03*
X007755Y004950D03*
X007952Y004950D03*
X008149Y004950D03*
D36*
X007854Y005324D03*
D37*
X008004Y006374D03*
X008324Y006374D03*
D38*
X008784Y007744D03*
X007484Y007744D03*
D39*
X006884Y004984D03*
X006884Y005704D03*
X008844Y005664D03*
X008844Y004944D03*
D40*
X016620Y005249D03*
X016620Y005446D03*
X016620Y005642D03*
X016620Y005839D03*
X017368Y005839D03*
X017368Y005642D03*
X017368Y005446D03*
X017368Y005249D03*
D41*
X016994Y005544D03*
D42*
X017884Y005444D03*
X017884Y005124D03*
D43*
X019144Y004664D03*
X019144Y005964D03*
D44*
X017354Y006434D03*
X016634Y006434D03*
X016634Y004544D03*
X017354Y004544D03*
M02*
