%
M48
M72
T01C0.0130
T02C0.0160
T03C0.0180
T04C0.0354
%
T01
X8374Y12374
X8824Y12634
X9274Y12894
X9844Y14240
X8084Y14494
X7104Y14084
X7104Y15184
X8374Y17044
X8824Y16764
X9274Y17044
X9814Y17977
X10394Y18814
X9644Y19334
X8824Y19334
X8374Y20598
X9104Y20874
X9644Y20598
X8824Y21614
X8004Y21674
X7104Y21164
X7104Y22264
X8824Y25024
X9274Y25434
X9938Y25838
X10794Y26164
X11564Y26164
X13004Y27814
X14114Y27814
X13674Y25740
X13174Y25740
X13174Y23264
X13674Y23264
X14044Y22794
X15434Y22614
X16274Y22614
X16894Y23114
X17294Y22814
X17694Y23114
X17294Y24264
X17694Y24564
X16894Y24564
X19071Y25084
X19557Y25084
X20494Y25174
X19784Y21684
X18864Y21684
X18314Y20598
X18794Y19774
X18384Y19334
X18094Y18894
X19764Y17589
X20257Y17589
X16794Y12674
X16134Y14240
X15334Y13994
X15504Y12574
X14981Y12521
X14284Y12081
X14047Y10208
X14741Y9514
X14094Y8014
X13694Y8014
X12324Y11094
X12444Y11824
X12444Y13144
X11834Y13714
X8824Y11414
X11024Y9564
X15294Y15684
X15294Y16214
X15294Y16744
X14674Y18014
X14174Y18404
X15664Y19334
X15864Y18914
X15904Y19774
X15754Y20598
X12594Y18964
X11714Y19334
X11944Y19774
X11804Y20598
X11484Y22614
X12324Y22614
X10794Y23264
X8794Y27054
X7204Y26864
X7204Y27724
X7104Y18724
X7104Y17624
X16504Y6964
X16904Y6964
X17304Y6964
X17704Y6964
X18724Y7644
X19124Y9611
X18604Y9844
X18844Y10317
X19594Y10078
X19944Y9373
X20084Y10994
X18048Y11414
X16824Y9344
X20764Y6484
T02
X8374Y10544
X9274Y10544
T03
X9744Y4324
T04
X10143Y5674
X11324Y5674
M30
