G75*
G70*
%OFA0B0*%
%FSLAX24Y24*%
%IPPOS*%
%LPD*%
%AMOC8*
5,1,8,0,0,1.08239X$1,22.5*
%
%ADD10R,0.0118X0.0276*%
%ADD11R,0.0236X0.0236*%
%ADD12R,0.0177X0.0217*%
%ADD13R,0.0217X0.0177*%
%ADD14R,0.0257X0.0453*%
%ADD15R,0.0158X0.0197*%
%ADD16R,0.0257X0.0276*%
%ADD17R,0.0157X0.0374*%
%ADD18R,0.0404X0.0157*%
%ADD19R,0.0384X0.0157*%
%ADD20R,0.0146X0.0335*%
%ADD21R,0.0236X0.0236*%
%ADD22R,0.0276X0.0257*%
%ADD23R,0.0434X0.0749*%
%ADD24R,0.0591X0.0512*%
%ADD25R,0.0355X0.0355*%
%ADD26C,0.0394*%
%ADD27R,0.0520X0.0920*%
%ADD28R,0.1457X0.0906*%
%ADD29R,0.0375X0.0197*%
%ADD30R,0.0157X0.0217*%
%ADD31R,0.0217X0.0157*%
%ADD32R,0.0276X0.0540*%
%ADD33R,0.0257X0.0434*%
%ADD34R,0.0433X0.0157*%
%ADD35R,0.0591X0.1064*%
D10*
X014400Y029334D03*
X014558Y029334D03*
X014715Y029334D03*
X014873Y029334D03*
X015030Y029334D03*
X015030Y030043D03*
X014873Y030043D03*
X014715Y030043D03*
X014558Y030043D03*
X014400Y030043D03*
D11*
X014555Y030842D03*
X014555Y031235D03*
X014112Y031235D03*
X014112Y030842D03*
X014992Y030842D03*
X014992Y031235D03*
X015421Y031237D03*
X015421Y030843D03*
X015245Y028709D03*
X015639Y028709D03*
X015632Y026765D03*
X015632Y026372D03*
X014689Y024039D03*
X014295Y024039D03*
X015812Y023975D03*
X015812Y023582D03*
X015582Y020515D03*
X015582Y020122D03*
X015582Y019525D03*
X015582Y019132D03*
X014926Y020519D03*
X014532Y020519D03*
X011219Y023909D03*
X010825Y023909D03*
X010825Y024959D03*
X011219Y024959D03*
X010499Y027069D03*
X010105Y027069D03*
X010085Y027539D03*
X010479Y027539D03*
X008919Y029219D03*
X008525Y029219D03*
X004752Y030442D03*
X004752Y030835D03*
X003512Y029390D03*
X003512Y028997D03*
X002952Y028997D03*
X002952Y029390D03*
X002762Y023805D03*
X002762Y023412D03*
X003082Y021055D03*
X003082Y020662D03*
X002762Y020265D03*
X002762Y019872D03*
X003182Y019135D03*
X003182Y018742D03*
X002762Y016725D03*
X002762Y016332D03*
X002588Y012970D03*
X002982Y012970D03*
X004795Y010529D03*
X005189Y010529D03*
X005755Y010529D03*
X006149Y010529D03*
X008325Y009899D03*
X008719Y009899D03*
X008720Y010412D03*
X008720Y010805D03*
X009582Y010415D03*
X009582Y010022D03*
X008789Y008919D03*
X008395Y008919D03*
X010812Y007039D03*
X011205Y007039D03*
X011200Y008792D03*
X011200Y009185D03*
X012502Y015322D03*
X012502Y015715D03*
X007269Y023819D03*
X006875Y023819D03*
D12*
X006875Y023171D03*
X007072Y023171D03*
X007269Y023171D03*
X007269Y022206D03*
X007072Y022206D03*
X006875Y022206D03*
X004384Y023126D03*
X004187Y023126D03*
X003990Y023126D03*
X003990Y024091D03*
X004187Y024091D03*
X004384Y024091D03*
X004386Y020551D03*
X004189Y020551D03*
X003992Y020551D03*
X003795Y020551D03*
X003599Y020551D03*
X003599Y019586D03*
X003795Y019586D03*
X003992Y019586D03*
X004189Y019586D03*
X004386Y019586D03*
X004386Y017011D03*
X004189Y017011D03*
X003992Y017011D03*
X003992Y016046D03*
X004189Y016046D03*
X004386Y016046D03*
X010825Y022206D03*
X011022Y022206D03*
X011219Y022206D03*
X011219Y023171D03*
X011022Y023171D03*
X010825Y023171D03*
X004949Y028741D03*
X004752Y028741D03*
X004555Y028741D03*
X004555Y029706D03*
X004752Y029706D03*
X004949Y029706D03*
D13*
X005234Y029617D03*
X005234Y029420D03*
X005234Y029224D03*
X005234Y029027D03*
X005234Y028830D03*
X004270Y028830D03*
X004270Y029027D03*
X004270Y029224D03*
X004270Y029420D03*
X004270Y029617D03*
X004669Y024002D03*
X004669Y023805D03*
X004669Y023609D03*
X004669Y023412D03*
X004669Y023215D03*
X003705Y023215D03*
X003705Y023412D03*
X003705Y023609D03*
X003705Y023805D03*
X003705Y024002D03*
X006590Y023082D03*
X006590Y022885D03*
X006590Y022689D03*
X006590Y022492D03*
X006590Y022295D03*
X007554Y022295D03*
X007554Y022492D03*
X007554Y022689D03*
X007554Y022885D03*
X007554Y023082D03*
X004474Y020265D03*
X004474Y020069D03*
X004474Y019872D03*
X003510Y019872D03*
X003510Y020069D03*
X003510Y020265D03*
X003707Y016922D03*
X003707Y016725D03*
X003707Y016529D03*
X003707Y016332D03*
X003707Y016135D03*
X004671Y016135D03*
X004671Y016332D03*
X004671Y016529D03*
X004671Y016725D03*
X004671Y016922D03*
X010540Y022295D03*
X010540Y022492D03*
X010540Y022689D03*
X010540Y022885D03*
X010540Y023082D03*
X011504Y023082D03*
X011504Y022885D03*
X011504Y022689D03*
X011504Y022492D03*
X011504Y022295D03*
D14*
X013549Y019856D03*
X014041Y019856D03*
X014533Y019856D03*
X015025Y019856D03*
X015025Y019010D03*
X014533Y019010D03*
X014041Y019010D03*
X013549Y019010D03*
D15*
X011264Y008282D03*
X011008Y008282D03*
X010753Y008282D03*
X010753Y007495D03*
X011264Y007495D03*
D16*
X010747Y008821D03*
X010747Y009156D03*
X008312Y010431D03*
X008312Y010766D03*
D17*
X014295Y022187D03*
X014492Y022187D03*
X014689Y022187D03*
X014689Y023191D03*
X014492Y023191D03*
X014295Y023191D03*
D18*
X014015Y022885D03*
X014015Y022689D03*
X014015Y022492D03*
X014970Y022492D03*
X014970Y022689D03*
X014970Y022885D03*
D19*
X014979Y023082D03*
X014979Y022295D03*
X014005Y022295D03*
X014005Y023082D03*
D20*
G36*
X011491Y015388D02*
X011388Y015491D01*
X011623Y015726D01*
X011726Y015623D01*
X011491Y015388D01*
G37*
G36*
X011630Y015248D02*
X011527Y015351D01*
X011762Y015586D01*
X011865Y015483D01*
X011630Y015248D01*
G37*
G36*
X011769Y015109D02*
X011666Y015212D01*
X011901Y015447D01*
X012004Y015344D01*
X011769Y015109D01*
G37*
G36*
X011908Y014970D02*
X011805Y015073D01*
X012040Y015308D01*
X012143Y015205D01*
X011908Y014970D01*
G37*
G36*
X012047Y014831D02*
X011944Y014934D01*
X012179Y015169D01*
X012282Y015066D01*
X012047Y014831D01*
G37*
G36*
X012186Y014692D02*
X012083Y014795D01*
X012318Y015030D01*
X012421Y014927D01*
X012186Y014692D01*
G37*
G36*
X012326Y014552D02*
X012223Y014655D01*
X012458Y014890D01*
X012561Y014787D01*
X012326Y014552D01*
G37*
G36*
X012465Y014413D02*
X012362Y014516D01*
X012597Y014751D01*
X012700Y014648D01*
X012465Y014413D01*
G37*
G36*
X012604Y014274D02*
X012501Y014377D01*
X012736Y014612D01*
X012839Y014509D01*
X012604Y014274D01*
G37*
G36*
X012743Y014135D02*
X012640Y014238D01*
X012875Y014473D01*
X012978Y014370D01*
X012743Y014135D01*
G37*
G36*
X012882Y013996D02*
X012779Y014099D01*
X013014Y014334D01*
X013117Y014231D01*
X012882Y013996D01*
G37*
G36*
X013022Y013857D02*
X012919Y013960D01*
X013154Y014195D01*
X013257Y014092D01*
X013022Y013857D01*
G37*
G36*
X013161Y013717D02*
X013058Y013820D01*
X013293Y014055D01*
X013396Y013952D01*
X013161Y013717D01*
G37*
G36*
X013300Y013578D02*
X013197Y013681D01*
X013432Y013916D01*
X013535Y013813D01*
X013300Y013578D01*
G37*
G36*
X013439Y013439D02*
X013336Y013542D01*
X013571Y013777D01*
X013674Y013674D01*
X013439Y013439D01*
G37*
G36*
X013578Y013300D02*
X013475Y013403D01*
X013710Y013638D01*
X013813Y013535D01*
X013578Y013300D01*
G37*
G36*
X013813Y012303D02*
X013710Y012200D01*
X013475Y012435D01*
X013578Y012538D01*
X013813Y012303D01*
G37*
G36*
X013336Y012296D02*
X013439Y012399D01*
X013674Y012164D01*
X013571Y012061D01*
X013336Y012296D01*
G37*
G36*
X013197Y012157D02*
X013300Y012260D01*
X013535Y012025D01*
X013432Y011922D01*
X013197Y012157D01*
G37*
G36*
X013058Y012018D02*
X013161Y012121D01*
X013396Y011886D01*
X013293Y011783D01*
X013058Y012018D01*
G37*
G36*
X012919Y011878D02*
X013022Y011981D01*
X013257Y011746D01*
X013154Y011643D01*
X012919Y011878D01*
G37*
G36*
X012779Y011739D02*
X012882Y011842D01*
X013117Y011607D01*
X013014Y011504D01*
X012779Y011739D01*
G37*
G36*
X012640Y011600D02*
X012743Y011703D01*
X012978Y011468D01*
X012875Y011365D01*
X012640Y011600D01*
G37*
G36*
X012501Y011461D02*
X012604Y011564D01*
X012839Y011329D01*
X012736Y011226D01*
X012501Y011461D01*
G37*
G36*
X012362Y011322D02*
X012465Y011425D01*
X012700Y011190D01*
X012597Y011087D01*
X012362Y011322D01*
G37*
G36*
X012223Y011182D02*
X012326Y011285D01*
X012561Y011050D01*
X012458Y010947D01*
X012223Y011182D01*
G37*
G36*
X012083Y011043D02*
X012186Y011146D01*
X012421Y010911D01*
X012318Y010808D01*
X012083Y011043D01*
G37*
G36*
X011944Y010904D02*
X012047Y011007D01*
X012282Y010772D01*
X012179Y010669D01*
X011944Y010904D01*
G37*
G36*
X011805Y010765D02*
X011908Y010868D01*
X012143Y010633D01*
X012040Y010530D01*
X011805Y010765D01*
G37*
G36*
X011666Y010626D02*
X011769Y010729D01*
X012004Y010494D01*
X011901Y010391D01*
X011666Y010626D01*
G37*
G36*
X011527Y010486D02*
X011630Y010589D01*
X011865Y010354D01*
X011762Y010251D01*
X011527Y010486D01*
G37*
G36*
X011388Y010347D02*
X011491Y010450D01*
X011726Y010215D01*
X011623Y010112D01*
X011388Y010347D01*
G37*
G36*
X010523Y010450D02*
X010626Y010347D01*
X010391Y010112D01*
X010288Y010215D01*
X010523Y010450D01*
G37*
G36*
X010384Y010589D02*
X010487Y010486D01*
X010252Y010251D01*
X010149Y010354D01*
X010384Y010589D01*
G37*
G36*
X010244Y010729D02*
X010347Y010626D01*
X010112Y010391D01*
X010009Y010494D01*
X010244Y010729D01*
G37*
G36*
X010105Y010868D02*
X010208Y010765D01*
X009973Y010530D01*
X009870Y010633D01*
X010105Y010868D01*
G37*
G36*
X009966Y011007D02*
X010069Y010904D01*
X009834Y010669D01*
X009731Y010772D01*
X009966Y011007D01*
G37*
G36*
X009827Y011146D02*
X009930Y011043D01*
X009695Y010808D01*
X009592Y010911D01*
X009827Y011146D01*
G37*
G36*
X009688Y011285D02*
X009791Y011182D01*
X009556Y010947D01*
X009453Y011050D01*
X009688Y011285D01*
G37*
G36*
X009549Y011425D02*
X009652Y011322D01*
X009417Y011087D01*
X009314Y011190D01*
X009549Y011425D01*
G37*
G36*
X009409Y011564D02*
X009512Y011461D01*
X009277Y011226D01*
X009174Y011329D01*
X009409Y011564D01*
G37*
G36*
X009270Y011703D02*
X009373Y011600D01*
X009138Y011365D01*
X009035Y011468D01*
X009270Y011703D01*
G37*
G36*
X009131Y011842D02*
X009234Y011739D01*
X008999Y011504D01*
X008896Y011607D01*
X009131Y011842D01*
G37*
G36*
X008992Y011981D02*
X009095Y011878D01*
X008860Y011643D01*
X008757Y011746D01*
X008992Y011981D01*
G37*
G36*
X008853Y012121D02*
X008956Y012018D01*
X008721Y011783D01*
X008618Y011886D01*
X008853Y012121D01*
G37*
G36*
X008713Y012260D02*
X008816Y012157D01*
X008581Y011922D01*
X008478Y012025D01*
X008713Y012260D01*
G37*
G36*
X008574Y012399D02*
X008677Y012296D01*
X008442Y012061D01*
X008339Y012164D01*
X008574Y012399D01*
G37*
G36*
X008435Y012538D02*
X008538Y012435D01*
X008303Y012200D01*
X008200Y012303D01*
X008435Y012538D01*
G37*
G36*
X008538Y013403D02*
X008435Y013300D01*
X008200Y013535D01*
X008303Y013638D01*
X008538Y013403D01*
G37*
G36*
X008677Y013542D02*
X008574Y013439D01*
X008339Y013674D01*
X008442Y013777D01*
X008677Y013542D01*
G37*
G36*
X008816Y013681D02*
X008713Y013578D01*
X008478Y013813D01*
X008581Y013916D01*
X008816Y013681D01*
G37*
G36*
X008956Y013820D02*
X008853Y013717D01*
X008618Y013952D01*
X008721Y014055D01*
X008956Y013820D01*
G37*
G36*
X009095Y013960D02*
X008992Y013857D01*
X008757Y014092D01*
X008860Y014195D01*
X009095Y013960D01*
G37*
G36*
X009234Y014099D02*
X009131Y013996D01*
X008896Y014231D01*
X008999Y014334D01*
X009234Y014099D01*
G37*
G36*
X009373Y014238D02*
X009270Y014135D01*
X009035Y014370D01*
X009138Y014473D01*
X009373Y014238D01*
G37*
G36*
X009512Y014377D02*
X009409Y014274D01*
X009174Y014509D01*
X009277Y014612D01*
X009512Y014377D01*
G37*
G36*
X009652Y014516D02*
X009549Y014413D01*
X009314Y014648D01*
X009417Y014751D01*
X009652Y014516D01*
G37*
G36*
X009791Y014655D02*
X009688Y014552D01*
X009453Y014787D01*
X009556Y014890D01*
X009791Y014655D01*
G37*
G36*
X009930Y014795D02*
X009827Y014692D01*
X009592Y014927D01*
X009695Y015030D01*
X009930Y014795D01*
G37*
G36*
X010069Y014934D02*
X009966Y014831D01*
X009731Y015066D01*
X009834Y015169D01*
X010069Y014934D01*
G37*
G36*
X010208Y015073D02*
X010105Y014970D01*
X009870Y015205D01*
X009973Y015308D01*
X010208Y015073D01*
G37*
G36*
X010347Y015212D02*
X010244Y015109D01*
X010009Y015344D01*
X010112Y015447D01*
X010347Y015212D01*
G37*
G36*
X010487Y015351D02*
X010384Y015248D01*
X010149Y015483D01*
X010252Y015586D01*
X010487Y015351D01*
G37*
G36*
X010626Y015491D02*
X010523Y015388D01*
X010288Y015623D01*
X010391Y015726D01*
X010626Y015491D01*
G37*
D21*
G36*
X009467Y015210D02*
X009301Y015376D01*
X009467Y015542D01*
X009633Y015376D01*
X009467Y015210D01*
G37*
G36*
X009149Y014892D02*
X008983Y015058D01*
X009149Y015224D01*
X009315Y015058D01*
X009149Y014892D01*
G37*
G36*
X008838Y014581D02*
X008672Y014747D01*
X008838Y014913D01*
X009004Y014747D01*
X008838Y014581D01*
G37*
G36*
X008560Y014859D02*
X008394Y015025D01*
X008560Y015191D01*
X008726Y015025D01*
X008560Y014859D01*
G37*
G36*
X008871Y015171D02*
X008705Y015337D01*
X008871Y015503D01*
X009037Y015337D01*
X008871Y015171D01*
G37*
G36*
X009189Y015489D02*
X009023Y015655D01*
X009189Y015821D01*
X009355Y015655D01*
X009189Y015489D01*
G37*
G36*
X012840Y010579D02*
X012674Y010413D01*
X012508Y010579D01*
X012674Y010745D01*
X012840Y010579D01*
G37*
G36*
X013215Y010194D02*
X013049Y010028D01*
X012883Y010194D01*
X013049Y010360D01*
X013215Y010194D01*
G37*
G36*
X013526Y009883D02*
X013360Y009717D01*
X013194Y009883D01*
X013360Y010049D01*
X013526Y009883D01*
G37*
G36*
X013247Y009605D02*
X013081Y009439D01*
X012915Y009605D01*
X013081Y009771D01*
X013247Y009605D01*
G37*
G36*
X012936Y009916D02*
X012770Y009750D01*
X012604Y009916D01*
X012770Y010082D01*
X012936Y009916D01*
G37*
G36*
X012561Y010300D02*
X012395Y010134D01*
X012229Y010300D01*
X012395Y010466D01*
X012561Y010300D01*
G37*
G36*
X014140Y013565D02*
X013974Y013731D01*
X014140Y013897D01*
X014306Y013731D01*
X014140Y013565D01*
G37*
G36*
X013861Y013844D02*
X013695Y014010D01*
X013861Y014176D01*
X014027Y014010D01*
X013861Y013844D01*
G37*
G36*
X014209Y014201D02*
X014043Y014367D01*
X014209Y014533D01*
X014375Y014367D01*
X014209Y014201D01*
G37*
G36*
X014487Y013923D02*
X014321Y014089D01*
X014487Y014255D01*
X014653Y014089D01*
X014487Y013923D01*
G37*
D22*
X015345Y010759D03*
X015345Y010289D03*
X015680Y010289D03*
X015680Y010759D03*
X015680Y009829D03*
X015345Y009829D03*
X008760Y009334D03*
X008425Y009334D03*
X002625Y006089D03*
X002290Y006089D03*
X014325Y024909D03*
X014660Y024909D03*
X014660Y025329D03*
X014325Y025329D03*
D23*
X005984Y009586D03*
X005000Y009586D03*
D24*
X006907Y009271D03*
X006907Y009901D03*
X007773Y009901D03*
X007773Y009271D03*
D25*
X002752Y006679D03*
X002162Y006679D03*
X014147Y009829D03*
X014147Y010289D03*
X014147Y010759D03*
X014737Y010759D03*
X014737Y010289D03*
X014737Y009829D03*
D26*
X007083Y008229D03*
X005902Y008229D03*
D27*
X004122Y005149D03*
X003212Y005149D03*
X002302Y005149D03*
X007922Y005149D03*
X008832Y005149D03*
X009742Y005149D03*
X013902Y005149D03*
X014812Y005149D03*
X015722Y005149D03*
D28*
X003212Y002709D03*
X008832Y002709D03*
X014812Y002709D03*
D29*
X007244Y012734D03*
X007244Y012990D03*
X007244Y013245D03*
X007244Y013501D03*
X007244Y013757D03*
X007244Y014013D03*
X007244Y014269D03*
X007244Y014525D03*
X007244Y014781D03*
X007244Y015037D03*
X004941Y015037D03*
X004941Y014781D03*
X004941Y014525D03*
X004941Y014269D03*
X004941Y014013D03*
X004941Y013757D03*
X004941Y013501D03*
X004941Y013245D03*
X004941Y012990D03*
X004941Y012734D03*
D30*
X008100Y026955D03*
X008297Y026955D03*
X008494Y026955D03*
X008691Y026955D03*
X008887Y026955D03*
X009084Y026955D03*
X009084Y028314D03*
X008887Y028314D03*
X008691Y028314D03*
X008494Y028314D03*
X008297Y028314D03*
X008100Y028314D03*
D31*
X007913Y028127D03*
X007913Y027930D03*
X007913Y027733D03*
X007913Y027536D03*
X007913Y027339D03*
X007913Y027142D03*
X009271Y027142D03*
X009271Y027339D03*
X009271Y027536D03*
X009271Y027733D03*
X009271Y027930D03*
X009271Y028127D03*
D32*
X009342Y019212D03*
X008842Y019212D03*
X008342Y019212D03*
X007842Y019212D03*
X007342Y019212D03*
X006842Y019212D03*
X006342Y019212D03*
X006342Y017105D03*
X006842Y017105D03*
X007342Y017105D03*
X007842Y017105D03*
X008342Y017105D03*
X008842Y017105D03*
X009342Y017105D03*
X009842Y017105D03*
X009842Y019212D03*
D33*
X004366Y012970D03*
X003992Y012970D03*
X003618Y012970D03*
X003618Y011907D03*
X003992Y011907D03*
X004366Y011907D03*
D34*
X013941Y025785D03*
X013941Y025982D03*
X013941Y026179D03*
X013941Y026375D03*
X013941Y026572D03*
X015043Y026572D03*
X015043Y026375D03*
X015043Y026179D03*
X015043Y025982D03*
X015043Y025785D03*
D35*
X014492Y026179D03*
M02*
