G75*
G70*
%OFA0B0*%
%FSLAX24Y24*%
%IPPOS*%
%LPD*%
%AMOC8*
5,1,8,0,0,1.08239X$1,22.5*
%
%ADD10R,0.0512X0.0945*%
%ADD11R,0.0276X0.0591*%
%ADD12R,0.0394X0.0236*%
%ADD13R,0.0394X0.0315*%
%ADD14R,0.0591X0.0945*%
%ADD15R,0.0236X0.0217*%
%ADD16C,0.1100*%
%ADD17R,0.0945X0.0512*%
%ADD18R,0.0197X0.0394*%
%ADD19R,0.0413X0.0472*%
%ADD20R,0.0217X0.0236*%
%ADD21R,0.0236X0.0591*%
%ADD22R,0.0472X0.0709*%
%ADD23C,0.0060*%
%ADD24C,0.0250*%
%ADD25C,0.0280*%
D10*
X002662Y015348D03*
X002662Y017710D03*
X002662Y018888D03*
X002662Y021250D03*
X002662Y022428D03*
X002662Y024790D03*
X002762Y028013D03*
X002762Y030375D03*
D11*
X005606Y007540D03*
X006787Y007540D03*
X007378Y007540D03*
D12*
X007929Y008622D03*
X005055Y008622D03*
D13*
X005055Y007796D03*
X007929Y007796D03*
D14*
X013587Y024109D03*
X015398Y024109D03*
D15*
X015070Y025359D03*
X014735Y025359D03*
X014243Y025359D03*
X013908Y025359D03*
G36*
X010781Y013818D02*
X010615Y013984D01*
X010767Y014136D01*
X010933Y013970D01*
X010781Y013818D01*
G37*
G36*
X011018Y013581D02*
X010852Y013747D01*
X011004Y013899D01*
X011170Y013733D01*
X011018Y013581D01*
G37*
G36*
X010498Y013531D02*
X010332Y013697D01*
X010484Y013849D01*
X010650Y013683D01*
X010498Y013531D01*
G37*
G36*
X010261Y013768D02*
X010095Y013934D01*
X010247Y014086D01*
X010413Y013920D01*
X010261Y013768D01*
G37*
D16*
X005222Y011664D03*
X003992Y010759D03*
X002762Y011664D03*
X008941Y007809D03*
X010171Y007809D03*
X013134Y025359D03*
X015834Y025359D03*
X012032Y030349D03*
D17*
X009903Y029319D03*
X007541Y029319D03*
X008253Y024109D03*
X009841Y024109D03*
X012203Y024109D03*
X005891Y024109D03*
D18*
X012386Y009987D03*
X012820Y009987D03*
X013253Y009987D03*
X013686Y009987D03*
X014119Y009987D03*
X014552Y009987D03*
X014985Y009987D03*
X015284Y009987D03*
X015560Y009987D03*
D19*
X015959Y010620D03*
X015959Y012372D03*
X011845Y012372D03*
X011845Y010620D03*
D20*
X004442Y011751D03*
X004442Y012086D03*
X003992Y012621D03*
X003992Y012956D03*
X003542Y012086D03*
X003542Y011751D03*
D21*
X003385Y007553D03*
X003779Y007553D03*
X011682Y008744D03*
X012075Y008744D03*
X012469Y008744D03*
X012863Y008744D03*
D22*
X013375Y007209D03*
X011170Y007209D03*
X004291Y009089D03*
X002874Y009089D03*
D23*
X003992Y010759D02*
X003992Y012621D01*
X003992Y012956D02*
X003992Y013309D01*
X003992Y014269D01*
X003992Y018659D01*
X003992Y021229D01*
X003992Y023509D01*
X003992Y026919D01*
X004442Y027329D02*
X004442Y022719D01*
X004392Y022769D01*
X004272Y022769D01*
X004442Y022719D02*
X004442Y021669D01*
X007112Y021669D01*
X011072Y021669D01*
X013962Y021669D01*
X013552Y021229D02*
X010832Y021229D01*
X006882Y021229D01*
X004812Y021229D01*
X004442Y021669D02*
X004442Y018939D01*
X004442Y014529D01*
X004442Y012439D01*
X004442Y012265D01*
X004366Y012189D01*
X004428Y012189D01*
X004442Y012086D01*
X004442Y011751D02*
X005222Y011663D01*
X005222Y011664D01*
X006672Y011459D02*
X007002Y011789D01*
X007002Y015609D01*
X007612Y015039D02*
X007612Y013719D01*
X009872Y012949D02*
X009874Y012949D01*
X010491Y013690D01*
X010692Y013489D01*
X010884Y013489D01*
X011011Y013740D01*
X011432Y014037D01*
X011432Y014039D01*
X010774Y013977D02*
X010472Y014269D01*
X015025Y018829D01*
X015025Y019433D01*
X015025Y019616D01*
X014735Y019906D01*
X014735Y025359D01*
X014725Y026979D01*
X014233Y026979D02*
X014243Y025359D01*
X014243Y019722D01*
X014532Y019433D01*
X014532Y018779D01*
X009970Y014216D01*
X009970Y014216D01*
X010254Y013927D01*
X011302Y016135D02*
X005372Y016135D01*
X005952Y017609D02*
X004982Y018579D01*
X004982Y020069D01*
X005562Y020709D02*
X005562Y018779D01*
X006202Y018139D01*
X010432Y018139D01*
X010462Y018109D01*
X010442Y017609D02*
X005952Y017609D01*
X008092Y018809D02*
X008092Y020529D01*
X007762Y020859D01*
X006972Y022493D02*
X010922Y022493D01*
X013482Y022493D01*
X013112Y020789D02*
X012632Y020309D01*
X010242Y020309D01*
X009842Y019909D01*
X009342Y020299D02*
X009852Y020809D01*
X011032Y020809D01*
X010462Y018639D02*
X008262Y018639D01*
X008092Y018809D01*
X010442Y017609D02*
X010462Y017579D01*
X006972Y022493D02*
X004812Y022493D01*
X003992Y022169D02*
X003992Y021229D01*
X003542Y022493D02*
X003542Y023409D01*
X003332Y023409D01*
X003172Y023569D01*
X003542Y023409D02*
X003542Y027549D01*
X003722Y027733D01*
X005107Y027733D01*
X005962Y028059D02*
X005962Y026469D01*
X006762Y026109D02*
X007272Y025599D01*
X009052Y025599D01*
X009342Y025309D01*
X008842Y026009D02*
X008842Y027635D01*
X008342Y027635D02*
X008342Y026009D01*
X007853Y024509D02*
X007492Y024509D01*
X007853Y024509D02*
X008253Y024109D01*
X009841Y024109D02*
X010241Y024509D01*
X010602Y024509D01*
X011442Y024509D02*
X011803Y024509D01*
X012203Y024109D01*
X013134Y025359D02*
X013908Y025359D01*
X015070Y025359D02*
X015834Y025359D01*
X009903Y029319D02*
X009513Y029709D01*
X009282Y029709D01*
X008172Y029709D02*
X007931Y029709D01*
X007541Y029319D01*
X006732Y028059D02*
X006762Y028029D01*
X006762Y026109D01*
X006652Y024509D02*
X006291Y024509D01*
X005891Y024109D01*
X003542Y022493D02*
X003542Y018939D01*
X003542Y016339D01*
X003302Y016339D01*
X003252Y016389D01*
X003542Y016339D02*
X003542Y014019D01*
X003542Y012439D01*
X003542Y012086D01*
X003542Y011751D02*
X002762Y011664D01*
X002662Y015348D02*
X002272Y015738D01*
X002272Y015979D01*
X002272Y017079D02*
X002272Y017320D01*
X002662Y017710D01*
X002662Y018888D02*
X002272Y019278D01*
X002272Y019519D01*
X002272Y020619D02*
X002272Y020860D01*
X002662Y021250D01*
X002662Y022428D01*
X002272Y022818D01*
X002272Y023059D01*
X002272Y024159D02*
X002272Y024400D01*
X002662Y024790D01*
X003722Y027733D02*
X003722Y028709D01*
X003962Y028949D01*
X002762Y028013D02*
X002372Y028403D01*
X002372Y028759D01*
X002372Y029619D02*
X002372Y029985D01*
X002762Y030375D01*
X014012Y012211D02*
X014012Y011159D01*
X013253Y010399D01*
X013253Y009987D01*
X012820Y009987D02*
X012820Y010566D01*
X013772Y011519D01*
X013772Y011739D01*
X014292Y011506D02*
X014292Y010409D01*
X014119Y010235D01*
X014119Y009987D01*
X014752Y010529D02*
X014752Y011963D01*
X014762Y011973D01*
X015112Y011268D02*
X015284Y011096D01*
X015284Y009987D01*
X014985Y009987D02*
X014985Y010296D01*
X014752Y010529D01*
X012863Y009299D02*
X012863Y008744D01*
X012469Y008744D02*
X012469Y009305D01*
X012472Y009309D01*
X012075Y009305D02*
X012072Y009309D01*
X012075Y009305D02*
X012075Y008744D01*
X011682Y008744D02*
X011682Y009299D01*
X011672Y009309D01*
X010171Y009289D02*
X010171Y007809D01*
X008941Y007809D02*
X008922Y007268D01*
X008941Y007809D02*
X008941Y008448D01*
X009592Y009099D01*
X010171Y009289D02*
X010082Y009599D01*
D24*
X010082Y009599D03*
X009592Y009099D03*
X011672Y009309D03*
X012072Y009309D03*
X012472Y009309D03*
X012872Y009309D03*
X014292Y011506D03*
X013772Y011739D03*
X014012Y012211D03*
X014762Y011973D03*
X015112Y011268D03*
X011432Y014039D03*
X010472Y014269D03*
X009970Y014216D03*
X009872Y012949D03*
X007612Y013719D03*
X007612Y015039D03*
X007002Y015609D03*
X005372Y016135D03*
X004442Y014529D03*
X003992Y014269D03*
X003542Y014019D03*
X003992Y013309D03*
X002272Y015979D03*
X003252Y016389D03*
X002272Y017079D03*
X003542Y018939D03*
X003992Y018659D03*
X004442Y018939D03*
X004982Y020069D03*
X005562Y020709D03*
X004812Y021229D03*
X003992Y021229D03*
X003542Y022493D03*
X004272Y022769D03*
X004812Y022493D03*
X003992Y023509D03*
X003172Y023569D03*
X002272Y023059D03*
X002272Y024159D03*
X003992Y026919D03*
X004442Y027329D03*
X005107Y027733D03*
X005962Y028059D03*
X006732Y028059D03*
X005962Y026469D03*
X006652Y024509D03*
X007492Y024509D03*
X008342Y026009D03*
X008842Y026009D03*
X009342Y025309D03*
X010602Y024509D03*
X011442Y024509D03*
X010922Y022493D03*
X011072Y021669D03*
X010832Y021229D03*
X011032Y020809D03*
X009842Y019909D03*
X009342Y020299D03*
X010462Y018639D03*
X010462Y018109D03*
X010462Y017579D03*
X011302Y016135D03*
X014532Y019433D03*
X015025Y019433D03*
X013552Y021229D03*
X013112Y020789D03*
X013962Y021669D03*
X013482Y022493D03*
X014233Y026979D03*
X014725Y026979D03*
X009282Y029709D03*
X008172Y029709D03*
X008342Y027635D03*
X008842Y027635D03*
X006972Y022493D03*
X007112Y021669D03*
X006882Y021229D03*
X007762Y020859D03*
X002272Y020619D03*
X002272Y019519D03*
X006672Y011459D03*
X002372Y028759D03*
X002372Y029619D03*
X003962Y028949D03*
D25*
X003542Y012439D03*
X004442Y012439D03*
M02*
