G75*
G70*
%OFA0B0*%
%FSLAX24Y24*%
%IPPOS*%
%LPD*%
%AMOC8*
5,1,8,0,0,1.08239X$1,22.5*
%
%ADD10R,0.0512X0.0945*%
%ADD11R,0.0276X0.0591*%
%ADD12R,0.0394X0.0236*%
%ADD13R,0.0394X0.0315*%
%ADD14R,0.0591X0.0945*%
%ADD15R,0.0236X0.0217*%
%ADD16C,0.1100*%
%ADD17C,0.1100*%
%ADD18R,0.0945X0.0512*%
%ADD19R,0.0197X0.0394*%
%ADD20R,0.0413X0.0472*%
%ADD21R,0.0217X0.0236*%
%ADD22R,0.0236X0.0591*%
%ADD23R,0.0472X0.0709*%
%ADD24C,0.0060*%
%ADD25C,0.0250*%
%ADD26C,0.0280*%
%ADD27C,0.0240*%
%ADD28C,0.0300*%
%ADD29C,0.0160*%
%ADD30C,0.0100*%
D10*
X007494Y013453D03*
X007494Y015815D03*
X007494Y016993D03*
X007494Y019355D03*
X007494Y020533D03*
X007494Y022895D03*
X007594Y026118D03*
X007594Y028480D03*
D11*
X009848Y006363D03*
X010439Y006363D03*
X011620Y006363D03*
D12*
X012171Y005280D03*
X009297Y005280D03*
D13*
X009297Y006107D03*
X012171Y006107D03*
D14*
X018418Y022214D03*
X020229Y022214D03*
D15*
G36*
X020117Y018492D02*
X019951Y018326D01*
X019799Y018478D01*
X019965Y018644D01*
X020117Y018492D01*
G37*
G36*
X019880Y018255D02*
X019714Y018089D01*
X019562Y018241D01*
X019728Y018407D01*
X019880Y018255D01*
G37*
G36*
X019181Y017880D02*
X019347Y018046D01*
X019499Y017894D01*
X019333Y017728D01*
X019181Y017880D01*
G37*
G36*
X018945Y017643D02*
X019111Y017809D01*
X019263Y017657D01*
X019097Y017491D01*
X018945Y017643D01*
G37*
G36*
X015795Y012138D02*
X015629Y012304D01*
X015781Y012456D01*
X015947Y012290D01*
X015795Y012138D01*
G37*
G36*
X016032Y011902D02*
X015866Y012068D01*
X016018Y012220D01*
X016184Y012054D01*
X016032Y011902D01*
G37*
G36*
X015662Y011692D02*
X015496Y011858D01*
X015648Y012010D01*
X015814Y011844D01*
X015662Y011692D01*
G37*
G36*
X015425Y011928D02*
X015259Y012094D01*
X015411Y012246D01*
X015577Y012080D01*
X015425Y011928D01*
G37*
D16*
X018556Y017103D02*
X018556Y017103D01*
X018556Y017103D01*
X018556Y017103D01*
X018556Y017103D01*
X018556Y017103D01*
X018556Y017103D01*
X018556Y017103D01*
X018556Y017103D01*
X018556Y017103D01*
X020498Y019025D02*
X020498Y019025D01*
X020498Y019025D01*
X020498Y019025D01*
X020498Y019025D01*
X020498Y019025D01*
X020498Y019025D01*
X020498Y019025D01*
X020498Y019025D01*
X020498Y019025D01*
D17*
X007594Y009769D03*
X008824Y008864D03*
X010054Y009769D03*
X013094Y006314D03*
X014694Y006314D03*
X016864Y028454D03*
D18*
X018143Y025604D03*
X020505Y025604D03*
X017035Y022214D03*
X014673Y022214D03*
X013085Y022214D03*
X010723Y022214D03*
X012373Y027424D03*
X014735Y027424D03*
D19*
X017218Y008092D03*
X017651Y008092D03*
X018084Y008092D03*
X018517Y008092D03*
X018950Y008092D03*
X019384Y008092D03*
X019817Y008092D03*
X020116Y008092D03*
X020391Y008092D03*
D20*
X020791Y008726D03*
X020791Y010478D03*
X016677Y010478D03*
X016677Y008726D03*
D21*
X009274Y009857D03*
X009274Y010191D03*
X008824Y010727D03*
X008824Y011061D03*
X008374Y010191D03*
X008374Y009857D03*
D22*
X011617Y007258D03*
X012011Y007258D03*
X013697Y007278D03*
X014091Y007278D03*
X016523Y006389D03*
X016917Y006389D03*
X017311Y006389D03*
X017704Y006389D03*
D23*
X018216Y004854D03*
X016012Y004854D03*
X014603Y008814D03*
X013185Y008814D03*
X012523Y008794D03*
X011105Y008794D03*
D24*
X011024Y009564D02*
X011024Y009714D01*
X011834Y010524D01*
X011834Y013714D01*
X012444Y013144D02*
X012444Y011824D01*
X013294Y010964D02*
X013294Y010961D01*
X014981Y012521D02*
X015408Y012095D01*
X015418Y012095D01*
X015418Y012087D01*
X015655Y011851D02*
X015618Y011814D01*
X015781Y012297D02*
X015504Y012574D01*
X020257Y017327D01*
X020257Y017589D01*
X019658Y018188D01*
X019718Y018248D01*
X019721Y018248D01*
X019721Y018216D01*
X019658Y018188D02*
X019567Y018279D01*
X019567Y025074D01*
X019557Y025084D01*
X019081Y025074D02*
X019071Y025084D01*
X019081Y025074D02*
X019081Y018271D01*
X019391Y017961D01*
X019340Y017910D01*
X019340Y017887D01*
X019382Y017905D01*
X019391Y017961D02*
X019764Y017589D01*
X019764Y017294D01*
X014981Y012521D01*
X015781Y012297D02*
X015788Y012297D01*
X016781Y012661D02*
X016794Y012674D01*
X016134Y014240D02*
X009844Y014240D01*
X009274Y012894D02*
X009274Y010544D01*
X009274Y010370D01*
X009198Y010294D01*
X009260Y010294D01*
X009274Y010191D01*
X009274Y009857D02*
X010054Y009768D01*
X010054Y009769D01*
X008824Y008864D02*
X008824Y010727D01*
X008824Y011061D02*
X008824Y011414D01*
X008824Y012634D01*
X008824Y016764D01*
X008824Y019334D01*
X008824Y021614D01*
X008824Y025024D01*
X009274Y025434D02*
X009274Y020824D01*
X009224Y020874D01*
X009104Y020874D01*
X009274Y020824D02*
X009274Y019774D01*
X011944Y019774D01*
X015904Y019774D01*
X018794Y019774D01*
X018384Y019334D02*
X015664Y019334D01*
X011714Y019334D01*
X009644Y019334D01*
X009274Y019774D02*
X009274Y017044D01*
X009274Y012894D01*
X008374Y012374D02*
X008374Y014444D01*
X008134Y014444D01*
X008084Y014494D01*
X008374Y014444D02*
X008374Y017044D01*
X008374Y020598D01*
X008374Y021514D01*
X008164Y021514D01*
X008004Y021674D01*
X008374Y021514D02*
X008374Y025654D01*
X008554Y025838D01*
X009938Y025838D01*
X010794Y026164D02*
X010794Y023264D01*
X011123Y022614D02*
X011484Y022614D01*
X011123Y022614D02*
X010723Y022214D01*
X011594Y023464D02*
X012104Y022954D01*
X013884Y022954D01*
X014044Y022794D01*
X013674Y023264D02*
X013674Y025740D01*
X013174Y025740D02*
X013174Y023264D01*
X014673Y022214D02*
X015073Y022614D01*
X015434Y022614D01*
X016894Y023114D02*
X016894Y024564D01*
X017294Y024264D02*
X017294Y022814D01*
X017694Y023114D02*
X017694Y024564D01*
X018418Y022214D02*
X018418Y022119D01*
X018428Y022119D01*
X018864Y021684D01*
X018314Y020598D02*
X015754Y020598D01*
X011804Y020598D01*
X009644Y020598D01*
X008824Y020274D02*
X008824Y019334D01*
X009814Y017977D02*
X009814Y016684D01*
X010784Y015714D01*
X015274Y015714D01*
X015294Y015684D01*
X015294Y016214D02*
X015264Y016244D01*
X011034Y016244D01*
X010394Y016884D01*
X010394Y018814D01*
X012594Y018964D02*
X012924Y018634D01*
X012924Y016914D01*
X013094Y016744D01*
X015294Y016744D01*
X014674Y018014D02*
X015074Y018414D01*
X017464Y018414D01*
X018094Y018894D01*
X019104Y017650D02*
X018556Y017103D01*
X019764Y017284D02*
X019764Y017294D01*
X019958Y018485D02*
X020498Y019025D01*
X019784Y021684D02*
X020229Y022129D01*
X020229Y022214D01*
X020494Y025174D02*
X020494Y025604D01*
X020505Y025604D01*
X015864Y018914D02*
X014684Y018914D01*
X014174Y018404D01*
X011594Y023464D02*
X011594Y026134D01*
X011564Y026164D01*
X008794Y027054D02*
X008554Y026814D01*
X008554Y025838D01*
X007594Y026118D02*
X007204Y026508D01*
X007204Y026864D01*
X007104Y021164D02*
X007104Y020923D01*
X007494Y020533D01*
X007494Y019355D01*
X007104Y018965D01*
X007104Y018724D01*
X007104Y014084D02*
X007104Y013843D01*
X007494Y013453D01*
X008374Y012374D02*
X008374Y010544D01*
X008374Y010191D01*
X008374Y009857D02*
X007594Y009769D01*
X013094Y006675D02*
X013094Y006314D01*
X013094Y006414D01*
X013697Y007017D01*
X013697Y007278D01*
X013697Y008001D01*
X013694Y008014D01*
X014094Y008014D02*
X014094Y007282D01*
X014091Y007278D01*
X014091Y007017D01*
X014694Y006414D01*
X014694Y006314D01*
X016504Y006409D02*
X016504Y006964D01*
X016904Y006964D02*
X016904Y006403D01*
X016917Y006389D01*
X017304Y006396D02*
X017304Y006964D01*
X017704Y006964D02*
X017704Y006390D01*
X017704Y006389D01*
X017311Y006389D02*
X017304Y006396D01*
X016523Y006389D02*
X016504Y006409D01*
X017651Y008092D02*
X017651Y008671D01*
X018604Y009624D01*
X018604Y009844D01*
X018844Y010317D02*
X018844Y009264D01*
X018084Y008504D01*
X018084Y008092D01*
X018950Y008092D02*
X018950Y008340D01*
X019124Y008514D01*
X019124Y009611D01*
X019584Y010068D02*
X019594Y010078D01*
X019584Y010068D02*
X019584Y008634D01*
X019817Y008401D01*
X019817Y008092D01*
X020116Y008092D02*
X020116Y009201D01*
X019944Y009373D01*
X014735Y027424D02*
X014345Y027814D01*
X014114Y027814D01*
D25*
X014114Y027814D03*
X013004Y027814D03*
X013174Y025740D03*
X013674Y025740D03*
X013674Y023264D03*
X013174Y023264D03*
X014044Y022794D03*
X015434Y022614D03*
X016274Y022614D03*
X016894Y023114D03*
X017294Y022814D03*
X017694Y023114D03*
X017294Y024264D03*
X017694Y024564D03*
X016894Y024564D03*
X019071Y025084D03*
X019557Y025084D03*
X020494Y025174D03*
X019784Y021684D03*
X018864Y021684D03*
X018314Y020598D03*
X018794Y019774D03*
X018384Y019334D03*
X018094Y018894D03*
X019764Y017589D03*
X020257Y017589D03*
X016794Y012674D03*
X016134Y014240D03*
X015334Y013994D03*
X015504Y012574D03*
X014981Y012521D03*
X014284Y012081D03*
X014047Y010208D03*
X014741Y009514D03*
X014094Y008014D03*
X013694Y008014D03*
X012324Y011094D03*
X012444Y011824D03*
X012444Y013144D03*
X011834Y013714D03*
X009844Y014240D03*
X009274Y012894D03*
X008824Y012634D03*
X008374Y012374D03*
X008824Y011414D03*
X007104Y014084D03*
X007104Y015184D03*
X008084Y014494D03*
X008824Y016764D03*
X009274Y017044D03*
X009814Y017977D03*
X010394Y018814D03*
X009644Y019334D03*
X008824Y019334D03*
X008374Y020598D03*
X009104Y020874D03*
X009644Y020598D03*
X008824Y021614D03*
X008004Y021674D03*
X007104Y021164D03*
X007104Y022264D03*
X008824Y025024D03*
X009274Y025434D03*
X009938Y025838D03*
X010794Y026164D03*
X011564Y026164D03*
X010794Y023264D03*
X011484Y022614D03*
X012324Y022614D03*
X011804Y020598D03*
X011944Y019774D03*
X011714Y019334D03*
X012594Y018964D03*
X014174Y018404D03*
X014674Y018014D03*
X015294Y016744D03*
X015294Y016214D03*
X015294Y015684D03*
X015864Y018914D03*
X015664Y019334D03*
X015904Y019774D03*
X015754Y020598D03*
X018048Y011414D03*
X018844Y010317D03*
X018604Y009844D03*
X019124Y009611D03*
X019594Y010078D03*
X019944Y009373D03*
X020084Y010994D03*
X018724Y007644D03*
X017704Y006964D03*
X017304Y006964D03*
X016904Y006964D03*
X016504Y006964D03*
X016824Y009344D03*
X020764Y006484D03*
X011024Y009564D03*
X008374Y017044D03*
X007104Y017624D03*
X007104Y018724D03*
X007204Y026864D03*
X007204Y027724D03*
X008794Y027054D03*
D26*
X008374Y010544D03*
X009274Y010544D03*
D27*
X010798Y007258D02*
X010439Y006899D01*
X010439Y006363D01*
X009848Y006363D02*
X009848Y005988D01*
X009744Y005884D01*
X009744Y004324D01*
X010798Y007258D02*
X011617Y007258D01*
D28*
X009744Y004324D03*
D29*
X014741Y009514D02*
X014063Y010192D01*
X013294Y010961D01*
X013294Y010964D02*
X013164Y011094D01*
X012324Y011094D01*
X014284Y011884D02*
X016259Y009909D01*
X016604Y009564D01*
X016604Y009484D01*
X015991Y008871D01*
X015991Y008264D01*
X016861Y007394D01*
X018244Y007394D01*
X018724Y006914D01*
X019154Y006484D01*
X020764Y006484D01*
X020084Y010994D02*
X018468Y010994D01*
X018048Y011414D01*
X017824Y011644D01*
X016794Y012674D01*
X016181Y012061D01*
X016025Y012061D01*
X015815Y011851D01*
X015655Y011851D01*
X014284Y011884D02*
X014284Y012081D01*
X014284Y012944D01*
X015334Y013994D01*
X014741Y009514D02*
X015991Y008264D01*
X016824Y009344D02*
X016604Y009564D01*
X017035Y022214D02*
X016635Y022614D01*
X016274Y022614D01*
X013085Y022214D02*
X012685Y022614D01*
X012324Y022614D01*
X012373Y027424D02*
X012763Y027814D01*
X013004Y027814D01*
X007594Y028480D02*
X007204Y028090D01*
X007204Y027724D01*
X007494Y022895D02*
X007104Y022505D01*
X007104Y022264D01*
X007104Y017624D02*
X007104Y017383D01*
X007494Y016993D01*
X007494Y015815D02*
X007104Y015425D01*
X007104Y015184D01*
D30*
X014048Y010208D02*
X014047Y010208D01*
X014048Y010208D02*
X014063Y010192D01*
X016259Y009909D02*
X016414Y009754D01*
X018517Y008092D02*
X018517Y007850D01*
X018724Y007644D01*
X018724Y006914D01*
M02*
