%
M48
M72
T01C0.0130
T02C0.0160
T03C0.0354
%
T01
X6672Y11459
X7612Y13719
X7612Y15039
X7002Y15609
X5372Y16135
X4442Y14529
X3992Y14269
X3542Y14019
X3992Y13309
X2272Y15979
X3252Y16389
X2272Y17079
X3542Y18939
X3992Y18659
X4442Y18939
X4982Y20069
X5562Y20709
X4812Y21229
X3992Y21229
X3542Y22493
X4272Y22769
X4812Y22493
X3992Y23509
X3172Y23569
X2272Y23059
X2272Y24159
X3992Y26919
X4442Y27329
X5107Y27733
X5962Y28059
X6732Y28059
X5962Y26469
X6652Y24509
X7492Y24509
X8342Y26009
X8842Y26009
X9342Y25309
X10602Y24509
X11442Y24509
X10922Y22493
X11072Y21669
X10832Y21229
X11032Y20809
X9842Y19909
X9342Y20299
X10462Y18639
X10462Y18109
X10462Y17579
X11302Y16135
X10472Y14269
X9970Y14216
X9872Y12949
X11432Y14039
X13772Y11739
X14012Y12211
X14292Y11506
X14762Y11973
X15112Y11268
X12872Y9309
X12472Y9309
X12072Y9309
X11672Y9309
X10082Y9599
X9592Y9099
X14532Y19433
X15025Y19433
X13552Y21229
X13112Y20789
X13962Y21669
X13482Y22493
X14233Y26979
X14725Y26979
X9282Y29709
X8172Y29709
X8342Y27635
X8842Y27635
X6972Y22493
X7112Y21669
X6882Y21229
X7762Y20859
X2272Y20619
X2272Y19519
X2372Y28759
X2372Y29619
X3962Y28949
T02
X3542Y12439
X4442Y12439
T03
X5902Y8229
X7083Y8229
M30
